<svg width="1904" height="1084" viewBox="0 0 1904 1084" fill="none" xmlns="http://www.w3.org/2000/svg">
<rect width="1904" height="1084" fill="#D0D0D0"/>
<path d="M375.391 381.211C375.565 380.777 375.756 380.36 375.878 379.909C379.56 367.175 383.261 354.424 386.909 341.674C387.308 340.301 387.951 339.815 389.393 339.832C397.748 339.902 406.122 339.867 414.477 339.867C416.406 339.867 416.458 339.919 416.458 341.865C416.458 362.797 416.458 383.73 416.475 404.663C416.475 406.105 416.11 406.678 414.564 406.644C409.839 406.557 405.114 406.574 400.406 406.644C399.051 406.644 398.582 406.192 398.634 404.854C398.947 396.759 399.225 388.664 399.503 380.569C399.607 377.668 399.729 374.784 399.798 371.883C399.937 366.932 400.042 361.964 400.163 357.013C400.163 356.648 400.076 356.283 399.711 355.866C399.555 356.231 399.381 356.596 399.26 356.978C394.1 372.873 388.906 388.751 383.799 404.646C383.295 406.192 382.566 406.696 380.967 406.661C376.989 406.557 372.994 406.591 369.016 406.644C367.956 406.644 367.418 406.279 367.087 405.271C362.067 389.81 357.012 374.35 351.974 358.871C351.609 357.777 351.262 356.665 350.897 355.571L350.341 355.623C350.341 356.839 350.306 358.055 350.341 359.254C350.498 362.884 350.723 366.515 350.845 370.128C351.088 377.737 351.262 385.346 351.505 392.955C351.627 396.829 351.87 400.702 352.026 404.576C352.096 406.47 351.957 406.609 350.081 406.609C345.303 406.609 340.544 406.574 335.766 406.626C334.394 406.644 333.977 406.122 333.977 404.82C333.994 383.748 333.994 362.659 333.977 341.587C333.977 340.353 334.359 339.832 335.662 339.832C344.018 339.867 352.391 339.884 360.747 339.832C362.084 339.832 362.536 340.44 362.866 341.552C366.705 354.251 370.579 366.932 374.436 379.631C374.592 380.169 374.801 380.69 374.992 381.211H375.356H375.391Z" fill="#6AAACD"/>
<path d="M265.897 246.894C264.664 251.341 263.326 255.753 262.215 260.218C259.852 269.772 258.393 279.466 257.837 289.298C257.021 303.942 258.74 318.326 261.989 332.553C264.699 344.383 267.843 356.109 270.345 367.974C271.648 374.141 271.96 380.517 272.707 386.788C272.742 387.066 272.794 387.344 272.898 388.038C273.419 387.309 273.784 386.892 274.062 386.423C281.688 373.464 280.542 357.377 271.057 345.704C269.65 343.967 268.712 342.195 268.295 339.988C267.061 333.422 265.689 326.89 264.404 320.341C264.299 319.785 264.299 319.212 264.212 318.256C272.69 321.939 279.604 327.133 285.163 334.047C293.484 344.401 297.722 356.266 297.34 369.538C296.367 402.683 268.243 421.392 247.397 422C247.536 421.548 247.605 421.132 247.779 420.767C252.417 410.378 254.988 399.504 255.822 388.177C256.552 378.31 256.135 368.461 255.231 358.628C254.206 347.58 252.973 336.549 252.243 325.5C251.705 317.179 251.41 308.806 251.74 300.468C252.452 282.193 256.829 264.734 264.89 248.249C265.133 247.727 265.411 247.241 265.672 246.72L265.915 246.859L265.897 246.894Z" fill="#325362"/>
<path d="M217.605 320.705C217.605 321.452 217.657 322.06 217.605 322.668C217.17 327.706 216.684 332.727 216.25 337.764C216.093 339.519 216.128 341.308 215.868 343.045C215.729 344.018 215.364 345.095 214.773 345.86C208.936 353.347 206.487 361.842 207.13 371.222C207.512 376.694 209.266 381.784 212.046 386.527C212.254 386.891 212.567 387.187 213.105 387.864C213.905 385.745 214.686 383.973 215.26 382.132C217.9 373.793 219.203 365.229 219.811 356.526C220.384 348.257 220.94 339.988 221.583 331.719C223.112 312.35 226.534 293.345 233.222 275.035C234.698 270.97 236.366 266.975 237.947 262.962C238.051 262.701 238.225 262.458 238.572 262.302C237.964 264.247 237.356 266.193 236.766 268.139C233.691 278.18 231.624 288.429 230.494 298.834C229.956 303.699 229.73 308.615 229.539 313.514C229.331 318.812 229.209 324.11 229.261 329.409C229.365 340.301 229.921 351.21 229.747 362.102C229.452 379.978 224.536 396.481 213.679 410.969C212.393 412.688 212.341 412.74 210.587 411.368C198.652 402.074 191.443 389.931 189.497 374.974C187.482 359.601 191.617 345.773 201.432 333.717C205.705 328.488 210.917 324.336 216.771 321.001C216.962 320.879 217.205 320.844 217.605 320.705Z" fill="#3A728B"/>
<path d="M750.151 395.804C750.585 392.92 751.019 390.036 751.436 387.152C752.722 378.414 754.025 369.677 755.293 360.921C755.414 360.035 755.814 359.618 756.735 359.618C760.765 359.618 764.795 359.636 768.825 359.618C770.076 359.618 769.989 360.331 769.833 361.182C768.825 366.932 767.852 372.699 766.845 378.449C765.299 387.309 763.735 396.151 762.241 405.01C762.033 406.244 761.547 406.643 760.331 406.626C754.042 406.574 747.736 406.574 741.448 406.626C740.232 406.626 739.745 406.227 739.519 405.01C737.626 395.074 735.663 385.155 733.717 375.218C733.596 374.61 733.457 374.002 733.005 373.377C732.727 374.732 732.414 376.087 732.154 377.442C730.434 386.458 728.714 395.491 727.046 404.524C726.768 406.035 726.247 406.678 724.58 406.643C718.43 406.539 712.28 406.574 706.131 406.643C704.741 406.643 704.116 406.227 703.873 404.819C701.302 390.314 698.696 375.809 696.073 361.321C695.812 359.931 696.351 359.584 697.619 359.601C701.354 359.636 705.089 359.688 708.824 359.584C710.3 359.549 710.804 360.122 710.978 361.477C711.759 367.314 712.593 373.151 713.41 378.988C714.122 384.147 714.834 389.289 715.564 394.449C715.633 394.918 715.79 395.387 716.207 395.908C716.345 395.439 716.519 394.97 716.623 394.501C718.969 383.452 721.314 372.404 723.607 361.338C723.867 360.105 724.336 359.584 725.639 359.601C730.556 359.653 735.472 359.653 740.388 359.601C741.708 359.601 742.16 360.122 742.42 361.338C744.713 372.404 747.059 383.452 749.404 394.501C749.491 394.952 749.647 395.387 749.769 395.821H750.133L750.151 395.804Z" fill="#6AAACD"/>
<path d="M959.41 367.835C959.566 367.505 959.757 367.192 959.879 366.862C961.547 362.345 964.778 359.618 969.538 359.062C972.143 358.749 974.871 358.628 977.459 359.027C984.477 360.104 988.438 364.638 988.525 371.761C988.664 382.861 988.56 393.962 988.594 405.08C988.594 406.226 988.177 406.643 987.031 406.643C983.053 406.608 979.057 406.574 975.079 406.643C973.603 406.678 973.116 406.191 973.116 404.698C973.168 395.803 973.151 386.909 973.134 378.015C973.134 377.233 973.134 376.434 973.012 375.669C972.317 371.552 970.615 370.562 966.515 370.736C961.634 370.927 959.427 373.376 959.34 378.31C959.202 386.996 959.149 395.699 959.08 404.385C959.063 406.608 959.08 406.608 956.874 406.608C953.035 406.608 949.195 406.574 945.356 406.626C944.088 406.643 943.619 406.209 943.619 404.923C943.637 383.799 943.637 362.675 943.619 341.534C943.619 340.266 944.071 339.797 945.339 339.814C949.265 339.866 953.208 339.884 957.134 339.814C958.611 339.78 959.097 340.266 959.08 341.76C959.028 349.873 959.045 357.968 959.045 366.08V367.765L959.375 367.817L959.41 367.835Z" fill="#6AAACD"/>
<path d="M266.333 222.139C265.742 223.233 265.169 224.345 264.561 225.422C254.589 243.523 248.162 262.806 245.278 283.27C243.906 292.981 243.489 302.778 244.166 312.524C244.774 321.314 246.39 330.034 247.38 338.824C248.092 345.009 248.596 351.228 249.013 357.447C249.274 361.303 249.378 365.195 249.274 369.069C248.77 386.805 245.365 403.881 237.374 419.863C236.314 421.965 236.28 422.139 234.039 421.566C230.182 420.593 226.395 419.394 222.574 418.317C221.219 417.935 221.027 417.362 221.809 416.146C226.169 409.319 229.609 402.057 232.076 394.327C234.595 386.423 236.158 378.345 236.61 370.059C236.87 365.403 237.218 360.748 237.114 356.092C236.957 348.778 236.436 341.482 236.071 334.186C235.863 330.017 235.55 325.865 235.446 321.696C235.342 317.475 235.342 313.271 235.429 309.049C235.689 296.802 237.756 284.816 241.074 273.055C243.802 263.431 247.502 254.172 251.984 245.243C255.944 237.374 260.531 229.869 265.568 222.643C265.725 222.417 265.916 222.208 266.09 222L266.333 222.139Z" fill="#3A728B"/>
<path d="M484.382 382.914C484.173 388.073 483.843 393.146 482.141 398.062C480.855 401.745 478.336 404.159 474.653 405.167C471.978 405.914 469.199 406.557 466.437 406.73C460.6 407.078 454.745 407.182 448.995 405.74C443.437 404.35 440.014 400.98 438.711 395.404C437.374 389.654 437.044 383.852 437.6 377.998C437.878 375.079 438.277 372.143 438.92 369.277C440.032 364.396 443.072 361.251 448.023 360.07C456.292 358.107 464.578 358.211 472.882 359.827C479.066 361.043 482.227 365.125 483.148 371.066C483.756 374.975 483.999 378.953 484.399 382.896L484.382 382.914ZM468.799 383.73C468.608 381.229 468.521 379.214 468.313 377.216C467.844 372.804 466.471 371.431 462.076 370.823C461.781 370.788 461.486 370.684 461.208 370.684C456.517 370.719 454.433 371.9 453.755 374.94C452.574 380.325 452.678 385.745 453.651 391.148C453.964 392.85 455.041 393.945 456.708 394.397C459.366 395.109 462.059 395.126 464.717 394.397C466.541 393.91 467.74 392.711 468 390.818C468.365 388.299 468.591 385.763 468.817 383.713L468.799 383.73Z" fill="#6AAACD"/>
<path d="M549.612 382.879C549.403 388.09 549.073 393.215 547.319 398.166C546.051 401.727 543.619 404.107 540.04 405.114C537.313 405.896 534.498 406.556 531.684 406.73C525.847 407.095 520.011 407.182 514.243 405.757C508.684 404.368 505.245 401.032 503.924 395.438C502.569 389.636 502.239 383.782 502.813 377.893C503.09 375.061 503.473 372.23 504.081 369.468C505.175 364.534 508.18 361.303 513.201 360.104C521.47 358.124 529.756 358.228 538.06 359.844C544.244 361.043 547.423 365.125 548.361 371.066C548.969 374.975 549.212 378.953 549.629 382.896L549.612 382.879ZM534.029 383.66C533.838 381.159 533.752 379.144 533.526 377.146C533.039 372.786 531.65 371.413 527.376 370.823C527.029 370.771 526.699 370.701 526.351 370.666C522.234 370.302 519.541 371.952 518.812 375.583C517.804 380.673 517.909 385.815 518.795 390.939C519.125 392.833 520.254 394.014 522.112 394.483C524.683 395.108 527.272 395.126 529.843 394.448C531.719 393.945 532.952 392.746 533.23 390.783C533.578 388.264 533.804 385.728 534.029 383.66Z" fill="#6AAACD"/>
<path d="M585.136 367.835C585.345 367.401 585.57 366.966 585.744 366.532C587.325 362.415 590.365 359.879 594.621 359.184C597.401 358.732 600.336 358.611 603.116 359.028C610.151 360.07 614.095 364.621 614.199 371.761C614.338 382.861 614.234 393.962 614.268 405.08C614.268 406.226 613.851 406.643 612.705 406.643C608.727 406.609 604.731 406.574 600.753 406.643C599.277 406.678 598.773 406.192 598.79 404.715C598.842 395.821 598.825 386.926 598.808 378.032C598.808 377.25 598.808 376.451 598.686 375.687C597.991 371.57 596.289 370.58 592.189 370.753C587.308 370.944 585.101 373.394 585.015 378.327C584.876 387.013 584.823 395.716 584.754 404.402C584.737 406.609 584.754 406.626 582.548 406.626C578.709 406.626 574.869 406.591 571.03 406.643C569.762 406.661 569.293 406.226 569.293 404.941C569.328 390.401 569.328 375.843 569.293 361.303C569.293 360.105 569.71 359.636 570.926 359.636C574.956 359.688 578.987 359.688 583.034 359.636C584.285 359.636 584.823 360.035 584.771 361.338C584.702 363.475 584.754 365.629 584.754 367.765L585.153 367.818L585.136 367.835Z" fill="#6AAACD"/>
<path d="M642.412 392.051C644.48 392.051 646.547 392.086 648.614 392.051C649.604 392.034 650.195 392.294 650.264 393.406C650.403 395.3 651.55 396.498 653.357 396.585C656.431 396.741 659.524 396.759 662.581 396.533C664.457 396.394 665.135 395.317 665.239 393.406C665.378 390.87 664.77 389.48 662.894 389.063C660.896 388.611 658.811 388.542 656.779 388.316C652.731 387.882 648.614 387.83 644.653 386.978C636.819 385.276 634.039 379.821 634.647 372.143C634.89 369.068 635.672 366.132 637.739 363.7C639.98 361.06 643.038 359.983 646.286 359.479C653.773 358.35 661.261 358.211 668.73 359.653C670.016 359.896 671.284 360.365 672.5 360.904C677.399 363.04 678.268 367.54 678.163 371.605C678.163 371.969 677.468 372.612 677.069 372.612C672.882 372.682 668.713 372.682 664.527 372.612C664.11 372.612 663.484 371.917 663.345 371.448C662.842 369.711 661.678 368.912 659.993 368.86C657.699 368.79 655.389 368.738 653.096 368.912C650.751 369.086 649.761 370.197 649.639 372.352C649.5 374.645 650.334 375.913 652.61 376.364C654.573 376.747 656.605 376.833 658.603 377.007C662.425 377.337 666.281 377.355 670.033 377.98C676.86 379.109 680.265 383.348 680.3 390.262C680.3 392.068 680.213 393.91 679.935 395.682C679.049 401.432 675.888 404.68 670.016 405.931C663.45 407.321 656.814 407.025 650.178 406.678C648.076 406.574 645.956 406.278 643.906 405.844C638.643 404.75 635.585 401.449 634.838 396.116C634.178 391.339 634.161 392.086 638.382 392.034C639.702 392.034 641.04 392.034 642.36 392.034L642.412 392.051Z" fill="#6AAACD"/>
<path d="M916.242 376.816C914.123 376.816 912.004 376.868 909.902 376.782C909.433 376.764 908.668 376.26 908.564 375.861C907.452 371.448 905.837 370.267 901.216 370.701C900.538 370.771 899.844 370.858 899.166 370.979C897.151 371.362 895.622 372.456 895.344 374.541C894.945 377.494 894.719 380.482 894.597 383.47C894.528 385.467 894.632 387.5 894.91 389.48C895.518 393.719 896.508 394.657 900.782 394.935C902.38 395.039 903.995 394.709 905.594 394.483C907.105 394.275 907.869 393.25 908.113 391.791C908.217 391.217 908.321 390.627 908.39 390.053C908.611 388.444 909.554 387.639 911.222 387.639C914.905 387.639 918.605 387.674 922.288 387.639C923.504 387.639 923.938 388.073 923.921 389.272C923.834 392.937 923.347 396.498 921.68 399.834C920.36 402.492 918.327 404.368 915.495 405.149C912.959 405.862 910.336 406.539 907.713 406.696C900.99 407.112 894.233 407.477 887.77 404.854C884.8 403.656 882.715 401.536 881.43 398.618C879.779 394.865 879.293 390.87 879.067 386.84C878.754 380.933 878.928 375.062 880.683 369.329C882.003 365.004 884.817 362.016 889.038 360.661C892.096 359.688 895.344 358.941 898.523 358.854C903.057 358.732 907.678 358.993 912.16 359.653C921.489 361.043 923.886 368.582 923.886 375.67C923.886 376.59 923.347 376.834 922.548 376.816C920.429 376.816 918.327 376.816 916.208 376.816H916.242Z" fill="#6AAACD"/>
<path d="M826.742 383.696C826.742 380.013 826.708 376.33 826.76 372.647C826.777 371.396 826.395 370.91 825.075 370.91C821.114 370.91 821.114 370.858 821.114 366.932C821.114 364.969 821.131 363.006 821.114 361.043C821.114 360.053 821.496 359.584 822.521 359.636C823.251 359.671 823.998 359.566 824.727 359.636C826.239 359.81 826.864 359.271 826.777 357.673C826.655 355.658 826.777 353.643 826.725 351.628C826.69 350.412 827.055 349.838 828.393 349.856C832.423 349.908 836.453 349.908 840.483 349.856C841.786 349.838 842.22 350.325 842.186 351.593C842.116 353.695 842.22 355.814 842.151 357.933C842.099 359.219 842.551 359.653 843.853 359.636C848.526 359.584 853.199 359.601 857.872 359.618C859.801 359.618 859.87 359.688 859.87 361.599C859.87 364.048 859.87 366.515 859.87 368.964C859.87 370.858 859.801 370.927 857.838 370.927C853.269 370.927 848.683 370.98 844.114 370.91C842.672 370.893 842.116 371.258 842.134 372.804C842.22 378.797 842.168 384.79 842.168 390.783C842.168 391.374 842.203 391.965 842.307 392.538C842.655 394.727 843.35 395.404 845.278 395.526C847.05 395.63 848.44 394.744 848.909 392.937C849.239 391.617 849.36 390.227 849.43 388.872C849.482 387.847 849.76 387.326 850.889 387.344C854.085 387.378 857.282 387.361 860.478 387.344C861.329 387.344 861.972 387.57 861.903 388.56C861.694 391.739 861.694 394.952 861.173 398.079C860.391 402.7 857.386 405.41 852.8 406.244C847.137 407.286 841.439 407.321 835.793 406.157C829.904 404.941 826.847 400.946 826.742 394.605C826.69 390.974 826.742 387.326 826.742 383.696Z" fill="#6AAACD"/>
<path d="M787.186 382.966C787.186 375.843 787.221 368.721 787.152 361.598C787.152 360.139 787.603 359.601 789.097 359.635C793.023 359.722 796.967 359.688 800.91 359.635C802.178 359.635 802.647 360.052 802.647 361.355C802.613 375.895 802.613 390.435 802.647 404.993C802.647 406.33 802.074 406.661 800.858 406.643C796.932 406.591 792.989 406.574 789.045 406.643C787.638 406.661 787.152 406.192 787.152 404.784C787.204 397.506 787.169 390.244 787.169 382.966H787.186Z" fill="#6AAACD"/>
<path d="M794.814 351.766C792.747 351.766 790.697 351.749 788.63 351.766C787.639 351.766 787.188 351.384 787.188 350.376C787.205 347.336 787.205 344.296 787.188 341.256C787.188 340.266 787.587 339.849 788.595 339.849C792.816 339.866 797.037 339.866 801.259 339.849C802.301 339.849 802.631 340.335 802.614 341.308C802.596 344.296 802.579 347.301 802.614 350.289C802.614 351.349 802.197 351.801 801.137 351.783C799.018 351.749 796.916 351.783 794.796 351.783L794.814 351.766Z" fill="#6AAACD"/>
<path d="M1423.9 238.894C1422.66 243.341 1421.33 247.753 1420.21 252.218C1417.85 261.772 1416.39 271.466 1415.84 281.298C1415.02 295.942 1416.74 310.326 1419.99 324.553C1422.7 336.383 1425.84 348.109 1428.34 359.974C1429.65 366.141 1429.96 372.517 1430.71 378.788C1430.74 379.066 1430.79 379.344 1430.9 380.038C1431.42 379.309 1431.78 378.892 1432.06 378.423C1439.69 365.464 1438.54 349.377 1429.06 337.704C1427.65 335.967 1426.71 334.195 1426.29 331.988C1425.06 325.422 1423.69 318.89 1422.4 312.341C1422.3 311.785 1422.3 311.212 1422.21 310.256C1430.69 313.939 1437.6 319.133 1443.16 326.047C1451.48 336.401 1455.72 348.266 1455.34 361.538C1454.37 394.683 1426.24 413.392 1405.4 414C1405.54 413.548 1405.61 413.132 1405.78 412.767C1410.42 402.378 1412.99 391.504 1413.82 380.177C1414.55 370.31 1414.13 360.461 1413.23 350.628C1412.21 339.58 1410.97 328.549 1410.24 317.5C1409.7 309.179 1409.41 300.806 1409.74 292.468C1410.45 274.193 1414.83 256.734 1422.89 240.249C1423.13 239.727 1423.41 239.241 1423.67 238.72L1423.91 238.859L1423.9 238.894Z" fill="#325362"/>
<path d="M1375.6 312.705C1375.6 313.452 1375.66 314.06 1375.6 314.668C1375.17 319.706 1374.68 324.727 1374.25 329.764C1374.09 331.519 1374.13 333.308 1373.87 335.045C1373.73 336.018 1373.36 337.095 1372.77 337.86C1366.94 345.347 1364.49 353.842 1365.13 363.222C1365.51 368.694 1367.27 373.784 1370.05 378.527C1370.25 378.891 1370.57 379.187 1371.11 379.864C1371.9 377.745 1372.69 375.973 1373.26 374.132C1375.9 365.793 1377.2 357.229 1377.81 348.526C1378.38 340.257 1378.94 331.988 1379.58 323.719C1381.11 304.35 1384.53 285.345 1391.22 267.035C1392.7 262.97 1394.37 258.975 1395.95 254.962C1396.05 254.701 1396.22 254.458 1396.57 254.302C1395.96 256.247 1395.36 258.193 1394.77 260.139C1391.69 270.18 1389.62 280.429 1388.49 290.834C1387.96 295.699 1387.73 300.615 1387.54 305.514C1387.33 310.812 1387.21 316.11 1387.26 321.409C1387.37 332.301 1387.92 343.21 1387.75 354.102C1387.45 371.978 1382.54 388.481 1371.68 402.969C1370.39 404.688 1370.34 404.74 1368.59 403.368C1356.65 394.074 1349.44 381.931 1347.5 366.974C1345.48 351.601 1349.62 337.773 1359.43 325.717C1363.71 320.488 1368.92 316.336 1374.77 313.001C1374.96 312.879 1375.21 312.844 1375.6 312.705Z" fill="#3A728B"/>
<path d="M1424.33 214.139C1423.74 215.233 1423.17 216.345 1422.56 217.422C1412.59 235.523 1406.16 254.806 1403.28 275.27C1401.91 284.981 1401.49 294.778 1402.17 304.524C1402.77 313.314 1404.39 322.034 1405.38 330.824C1406.09 337.009 1406.6 343.228 1407.01 349.447C1407.27 353.303 1407.38 357.195 1407.27 361.069C1406.77 378.805 1403.37 395.881 1395.37 411.863C1394.31 413.965 1394.28 414.139 1392.04 413.566C1388.18 412.593 1384.4 411.394 1380.57 410.317C1379.22 409.935 1379.03 409.362 1379.81 408.146C1384.17 401.319 1387.61 394.057 1390.08 386.327C1392.59 378.423 1394.16 370.345 1394.61 362.059C1394.87 357.403 1395.22 352.748 1395.11 348.092C1394.96 340.778 1394.44 333.482 1394.07 326.186C1393.86 322.017 1393.55 317.865 1393.45 313.696C1393.34 309.475 1393.34 305.271 1393.43 301.049C1393.69 288.802 1395.76 276.816 1399.07 265.055C1401.8 255.431 1405.5 246.172 1409.98 237.243C1413.94 229.374 1418.53 221.869 1423.57 214.643C1423.72 214.417 1423.92 214.208 1424.09 214L1424.33 214.139Z" fill="#3A728B"/>
<path d="M1423.9 509.894C1422.66 514.341 1421.33 518.753 1420.21 523.218C1417.85 532.772 1416.39 542.466 1415.84 552.298C1415.02 566.942 1416.74 581.326 1419.99 595.553C1422.7 607.383 1425.84 619.109 1428.34 630.974C1429.65 637.141 1429.96 643.517 1430.71 649.788C1430.74 650.066 1430.79 650.344 1430.9 651.038C1431.42 650.309 1431.78 649.892 1432.06 649.423C1439.69 636.464 1438.54 620.377 1429.06 608.704C1427.65 606.967 1426.71 605.195 1426.29 602.988C1425.06 596.422 1423.69 589.89 1422.4 583.341C1422.3 582.785 1422.3 582.212 1422.21 581.256C1430.69 584.939 1437.6 590.133 1443.16 597.047C1451.48 607.401 1455.72 619.266 1455.34 632.538C1454.37 665.683 1426.24 684.392 1405.4 685C1405.54 684.548 1405.61 684.132 1405.78 683.767C1410.42 673.378 1412.99 662.504 1413.82 651.177C1414.55 641.31 1414.13 631.461 1413.23 621.628C1412.21 610.58 1410.97 599.549 1410.24 588.5C1409.7 580.179 1409.41 571.806 1409.74 563.468C1410.45 545.193 1414.83 527.734 1422.89 511.249C1423.13 510.727 1423.41 510.241 1423.67 509.72L1423.91 509.859L1423.9 509.894Z" fill="#171717"/>
<path d="M1375.6 583.705C1375.6 584.452 1375.66 585.06 1375.6 585.668C1375.17 590.706 1374.68 595.727 1374.25 600.764C1374.09 602.519 1374.13 604.308 1373.87 606.045C1373.73 607.018 1373.36 608.095 1372.77 608.86C1366.94 616.347 1364.49 624.841 1365.13 634.222C1365.51 639.694 1367.27 644.784 1370.05 649.527C1370.25 649.891 1370.57 650.187 1371.11 650.864C1371.9 648.745 1372.69 646.973 1373.26 645.132C1375.9 636.793 1377.2 628.229 1377.81 619.526C1378.38 611.257 1378.94 602.988 1379.58 594.719C1381.11 575.35 1384.53 556.345 1391.22 538.035C1392.7 533.97 1394.37 529.975 1395.95 525.962C1396.05 525.701 1396.22 525.458 1396.57 525.302C1395.96 527.247 1395.36 529.193 1394.77 531.139C1391.69 541.18 1389.62 551.429 1388.49 561.834C1387.96 566.699 1387.73 571.615 1387.54 576.514C1387.33 581.812 1387.21 587.11 1387.26 592.409C1387.37 603.301 1387.92 614.21 1387.75 625.102C1387.45 642.978 1382.54 659.481 1371.68 673.969C1370.39 675.688 1370.34 675.74 1368.59 674.368C1356.65 665.074 1349.44 652.931 1347.5 637.974C1345.48 622.601 1349.62 608.773 1359.43 596.717C1363.71 591.488 1368.92 587.336 1374.77 584.001C1374.96 583.879 1375.21 583.844 1375.6 583.705Z" fill="#171717"/>
<path d="M1424.33 485.139C1423.74 486.233 1423.17 487.345 1422.56 488.422C1412.59 506.523 1406.16 525.806 1403.28 546.27C1401.91 555.981 1401.49 565.778 1402.17 575.524C1402.77 584.314 1404.39 593.034 1405.38 601.824C1406.09 608.009 1406.6 614.228 1407.01 620.447C1407.27 624.303 1407.38 628.195 1407.27 632.069C1406.77 649.805 1403.37 666.881 1395.37 682.863C1394.31 684.965 1394.28 685.139 1392.04 684.566C1388.18 683.593 1384.4 682.394 1380.57 681.317C1379.22 680.935 1379.03 680.362 1379.81 679.146C1384.17 672.319 1387.61 665.057 1390.08 657.327C1392.59 649.423 1394.16 641.345 1394.61 633.059C1394.87 628.403 1395.22 623.748 1395.11 619.092C1394.96 611.778 1394.44 604.482 1394.07 597.186C1393.86 593.017 1393.55 588.865 1393.45 584.696C1393.34 580.475 1393.34 576.271 1393.43 572.049C1393.69 559.802 1395.76 547.816 1399.07 536.055C1401.8 526.431 1405.5 517.172 1409.98 508.243C1413.94 500.374 1418.53 492.869 1423.57 485.643C1423.72 485.417 1423.92 485.208 1424.09 485L1424.33 485.139Z" fill="#171717"/>
<path d="M1423.9 780.894C1422.66 785.341 1421.33 789.753 1420.21 794.218C1417.85 803.772 1416.39 813.466 1415.84 823.298C1415.02 837.942 1416.74 852.326 1419.99 866.553C1422.7 878.384 1425.84 890.109 1428.34 901.974C1429.65 908.141 1429.96 914.517 1430.71 920.788C1430.74 921.066 1430.79 921.344 1430.9 922.039C1431.42 921.309 1431.78 920.892 1432.06 920.423C1439.69 907.464 1438.54 891.378 1429.06 879.704C1427.65 877.967 1426.71 876.195 1426.29 873.988C1425.06 867.422 1423.69 860.89 1422.4 854.341C1422.3 853.785 1422.3 853.212 1422.21 852.257C1430.69 855.939 1437.6 861.133 1443.16 868.047C1451.48 878.401 1455.72 890.266 1455.34 903.538C1454.37 936.683 1426.24 955.392 1405.4 956C1405.54 955.548 1405.61 955.132 1405.78 954.767C1410.42 944.378 1412.99 933.504 1413.82 922.177C1414.55 912.31 1414.13 902.461 1413.23 892.628C1412.21 881.58 1410.97 870.549 1410.24 859.5C1409.7 851.179 1409.41 842.806 1409.74 834.468C1410.45 816.193 1414.83 798.734 1422.89 782.249C1423.13 781.728 1423.41 781.241 1423.67 780.72L1423.91 780.859L1423.9 780.894Z" fill="white"/>
<path d="M1375.6 854.705C1375.6 855.452 1375.66 856.06 1375.6 856.668C1375.17 861.706 1374.68 866.727 1374.25 871.764C1374.09 873.519 1374.13 875.308 1373.87 877.045C1373.73 878.018 1373.36 879.095 1372.77 879.86C1366.94 887.347 1364.49 895.841 1365.13 905.222C1365.51 910.694 1367.27 915.784 1370.05 920.527C1370.25 920.891 1370.57 921.187 1371.11 921.864C1371.9 919.745 1372.69 917.973 1373.26 916.132C1375.9 907.793 1377.2 899.229 1377.81 890.526C1378.38 882.257 1378.94 873.988 1379.58 865.719C1381.11 846.35 1384.53 827.345 1391.22 809.035C1392.7 804.97 1394.37 800.975 1395.95 796.962C1396.05 796.701 1396.22 796.458 1396.57 796.302C1395.96 798.247 1395.36 800.193 1394.77 802.139C1391.69 812.18 1389.62 822.429 1388.49 832.834C1387.96 837.699 1387.73 842.615 1387.54 847.514C1387.33 852.812 1387.21 858.11 1387.26 863.409C1387.37 874.301 1387.92 885.21 1387.75 896.102C1387.45 913.978 1382.54 930.481 1371.68 944.969C1370.39 946.688 1370.34 946.74 1368.59 945.368C1356.65 936.074 1349.44 923.931 1347.5 908.974C1345.48 893.601 1349.62 879.773 1359.43 867.717C1363.71 862.488 1368.92 858.336 1374.77 855.001C1374.96 854.879 1375.21 854.844 1375.6 854.705Z" fill="white"/>
<path d="M1424.33 756.139C1423.74 757.233 1423.17 758.345 1422.56 759.422C1412.59 777.523 1406.16 796.806 1403.28 817.27C1401.91 826.981 1401.49 836.778 1402.17 846.524C1402.77 855.314 1404.39 864.034 1405.38 872.824C1406.09 879.009 1406.6 885.228 1407.01 891.447C1407.27 895.303 1407.38 899.195 1407.27 903.069C1406.77 920.805 1403.37 937.881 1395.37 953.863C1394.31 955.965 1394.28 956.139 1392.04 955.566C1388.18 954.593 1384.4 953.394 1380.57 952.317C1379.22 951.935 1379.03 951.362 1379.81 950.146C1384.17 943.319 1387.61 936.057 1390.08 928.327C1392.59 920.423 1394.16 912.345 1394.61 904.059C1394.87 899.403 1395.22 894.748 1395.11 890.092C1394.96 882.778 1394.44 875.482 1394.07 868.186C1393.86 864.017 1393.55 859.865 1393.45 855.696C1393.34 851.475 1393.34 847.271 1393.43 843.049C1393.69 830.802 1395.76 818.816 1399.07 807.055C1401.8 797.431 1405.5 788.172 1409.98 779.243C1413.94 771.374 1418.53 763.869 1423.57 756.643C1423.72 756.417 1423.92 756.208 1424.09 756L1424.33 756.139Z" fill="white"/>
<path d="M372.391 616.211C372.565 615.777 372.756 615.36 372.878 614.909C376.56 602.175 380.261 589.424 383.909 576.674C384.308 575.301 384.951 574.815 386.393 574.832C394.748 574.902 403.122 574.867 411.477 574.867C413.406 574.867 413.458 574.919 413.458 576.865C413.458 597.797 413.458 618.73 413.475 639.663C413.475 641.105 413.11 641.678 411.564 641.644C406.839 641.557 402.114 641.574 397.406 641.644C396.051 641.644 395.582 641.192 395.634 639.854C395.947 631.759 396.225 623.664 396.503 615.569C396.607 612.668 396.729 609.784 396.798 606.883C396.937 601.932 397.042 596.964 397.163 592.013C397.163 591.648 397.076 591.283 396.711 590.866C396.555 591.231 396.381 591.596 396.26 591.978C391.1 607.873 385.906 623.751 380.799 639.646C380.295 641.192 379.566 641.696 377.967 641.661C373.989 641.557 369.994 641.591 366.016 641.644C364.956 641.644 364.418 641.279 364.087 640.271C359.067 624.81 354.012 609.35 348.974 593.871C348.609 592.777 348.262 591.665 347.897 590.571L347.341 590.623C347.341 591.839 347.306 593.055 347.341 594.254C347.498 597.884 347.723 601.515 347.845 605.128C348.088 612.737 348.262 620.346 348.505 627.955C348.627 631.829 348.87 635.702 349.026 639.576C349.096 641.47 348.957 641.609 347.081 641.609C342.303 641.609 337.544 641.574 332.766 641.626C331.394 641.644 330.977 641.122 330.977 639.82C330.994 618.748 330.994 597.659 330.977 576.587C330.977 575.353 331.359 574.832 332.662 574.832C341.018 574.867 349.391 574.884 357.747 574.832C359.084 574.832 359.536 575.44 359.866 576.552C363.705 589.251 367.579 601.932 371.436 614.631C371.592 615.169 371.801 615.69 371.992 616.211H372.356H372.391Z" fill="#171717"/>
<path d="M262.897 481.894C261.664 486.341 260.326 490.753 259.215 495.218C256.852 504.772 255.393 514.466 254.837 524.298C254.021 538.942 255.74 553.326 258.989 567.553C261.699 579.383 264.843 591.109 267.345 602.974C268.648 609.141 268.96 615.517 269.707 621.788C269.742 622.066 269.794 622.344 269.898 623.038C270.419 622.309 270.784 621.892 271.062 621.423C278.688 608.464 277.542 592.377 268.057 580.704C266.65 578.967 265.712 577.195 265.295 574.988C264.061 568.422 262.689 561.89 261.404 555.341C261.299 554.785 261.299 554.212 261.212 553.256C269.69 556.939 276.604 562.133 282.163 569.047C290.484 579.401 294.722 591.266 294.34 604.538C293.367 637.683 265.243 656.392 244.397 657C244.536 656.548 244.605 656.132 244.779 655.767C249.417 645.378 251.988 634.504 252.822 623.177C253.552 613.31 253.135 603.461 252.231 593.628C251.206 582.58 249.973 571.549 249.243 560.5C248.705 552.179 248.41 543.806 248.74 535.468C249.452 517.193 253.829 499.734 261.89 483.249C262.133 482.727 262.411 482.241 262.672 481.72L262.915 481.859L262.897 481.894Z" fill="#171717"/>
<path d="M214.605 555.705C214.605 556.452 214.657 557.06 214.605 557.668C214.17 562.706 213.684 567.727 213.25 572.764C213.093 574.519 213.128 576.308 212.868 578.045C212.729 579.018 212.364 580.095 211.773 580.86C205.936 588.347 203.487 596.841 204.13 606.222C204.512 611.694 206.266 616.784 209.046 621.527C209.254 621.891 209.567 622.187 210.105 622.864C210.905 620.745 211.686 618.973 212.26 617.132C214.9 608.793 216.203 600.229 216.811 591.526C217.384 583.257 217.94 574.988 218.583 566.719C220.112 547.35 223.534 528.345 230.222 510.035C231.698 505.97 233.366 501.975 234.947 497.962C235.051 497.701 235.225 497.458 235.572 497.302C234.964 499.247 234.356 501.193 233.766 503.139C230.691 513.18 228.624 523.429 227.494 533.834C226.956 538.699 226.73 543.615 226.539 548.514C226.331 553.812 226.209 559.11 226.261 564.409C226.365 575.301 226.921 586.21 226.747 597.102C226.452 614.978 221.536 631.481 210.679 645.969C209.393 647.688 209.341 647.74 207.587 646.368C195.652 637.074 188.443 624.931 186.497 609.974C184.482 594.601 188.617 580.773 198.432 568.717C202.705 563.488 207.917 559.336 213.771 556.001C213.962 555.879 214.205 555.844 214.605 555.705Z" fill="#171717"/>
<path d="M747.151 630.804C747.585 627.92 748.019 625.036 748.436 622.152C749.722 613.414 751.025 604.677 752.293 595.921C752.414 595.035 752.814 594.618 753.735 594.618C757.765 594.618 761.795 594.636 765.825 594.618C767.076 594.618 766.989 595.331 766.833 596.182C765.825 601.932 764.852 607.699 763.845 613.449C762.299 622.309 760.735 631.151 759.241 640.01C759.033 641.244 758.547 641.643 757.331 641.626C751.042 641.574 744.736 641.574 738.448 641.626C737.232 641.626 736.745 641.227 736.519 640.01C734.626 630.074 732.663 620.155 730.717 610.218C730.596 609.61 730.457 609.002 730.005 608.377C729.727 609.732 729.414 611.087 729.154 612.442C727.434 621.458 725.714 630.491 724.046 639.524C723.768 641.035 723.247 641.678 721.58 641.643C715.43 641.539 709.28 641.574 703.131 641.643C701.741 641.643 701.116 641.227 700.873 639.819C698.302 625.314 695.696 610.809 693.073 596.321C692.812 594.931 693.351 594.584 694.619 594.601C698.354 594.636 702.089 594.688 705.824 594.584C707.3 594.549 707.804 595.122 707.978 596.477C708.759 602.314 709.593 608.151 710.41 613.988C711.122 619.147 711.834 624.289 712.564 629.449C712.633 629.918 712.79 630.387 713.207 630.908C713.345 630.439 713.519 629.97 713.623 629.501C715.969 618.452 718.314 607.404 720.607 596.338C720.867 595.105 721.336 594.584 722.639 594.601C727.556 594.653 732.472 594.653 737.388 594.601C738.708 594.601 739.16 595.122 739.42 596.338C741.713 607.404 744.059 618.452 746.404 629.501C746.491 629.952 746.647 630.387 746.769 630.821H747.133L747.151 630.804Z" fill="#171717"/>
<path d="M956.41 602.835C956.566 602.505 956.757 602.192 956.879 601.862C958.547 597.345 961.778 594.618 966.538 594.062C969.143 593.749 971.871 593.628 974.459 594.027C981.477 595.104 985.438 599.638 985.525 606.761C985.664 617.861 985.56 628.962 985.594 640.08C985.594 641.226 985.177 641.643 984.031 641.643C980.053 641.608 976.057 641.574 972.079 641.643C970.603 641.678 970.116 641.191 970.116 639.698C970.168 630.803 970.151 621.909 970.134 613.015C970.134 612.233 970.134 611.434 970.012 610.669C969.317 606.552 967.615 605.562 963.515 605.736C958.634 605.927 956.427 608.376 956.34 613.31C956.202 621.996 956.149 630.699 956.08 639.385C956.063 641.608 956.08 641.608 953.874 641.608C950.035 641.608 946.195 641.574 942.356 641.626C941.088 641.643 940.619 641.209 940.619 639.923C940.637 618.799 940.637 597.675 940.619 576.534C940.619 575.266 941.071 574.797 942.339 574.814C946.265 574.866 950.208 574.884 954.134 574.814C955.611 574.78 956.097 575.266 956.08 576.76C956.028 584.873 956.045 592.968 956.045 601.08V602.765L956.375 602.817L956.41 602.835Z" fill="#171717"/>
<path d="M263.333 457.139C262.742 458.233 262.169 459.345 261.561 460.422C251.589 478.523 245.162 497.806 242.278 518.27C240.906 527.981 240.489 537.778 241.166 547.524C241.774 556.314 243.39 565.034 244.38 573.824C245.092 580.009 245.596 586.228 246.013 592.447C246.274 596.303 246.378 600.195 246.274 604.069C245.77 621.805 242.365 638.881 234.374 654.863C233.314 656.965 233.28 657.139 231.039 656.566C227.182 655.593 223.395 654.394 219.574 653.317C218.219 652.935 218.027 652.362 218.809 651.146C223.169 644.319 226.609 637.057 229.076 629.327C231.595 621.423 233.158 613.345 233.61 605.059C233.87 600.403 234.218 595.748 234.114 591.092C233.957 583.778 233.436 576.482 233.071 569.186C232.863 565.017 232.55 560.865 232.446 556.696C232.342 552.475 232.342 548.271 232.429 544.049C232.689 531.802 234.756 519.816 238.074 508.055C240.802 498.431 244.502 489.172 248.984 480.243C252.944 472.374 257.531 464.869 262.568 457.643C262.725 457.417 262.916 457.208 263.09 457L263.333 457.139Z" fill="#171717"/>
<path d="M481.382 617.914C481.173 623.073 480.843 628.146 479.141 633.062C477.855 636.745 475.336 639.159 471.653 640.167C468.978 640.914 466.199 641.557 463.437 641.73C457.6 642.078 451.745 642.182 445.995 640.74C440.437 639.35 437.014 635.98 435.711 630.404C434.374 624.654 434.044 618.852 434.6 612.998C434.878 610.079 435.277 607.143 435.92 604.277C437.032 599.396 440.072 596.251 445.023 595.07C453.292 593.107 461.578 593.211 469.882 594.827C476.066 596.043 479.227 600.125 480.148 606.066C480.756 609.975 480.999 613.953 481.399 617.896L481.382 617.914ZM465.799 618.73C465.608 616.229 465.521 614.214 465.313 612.216C464.844 607.804 463.471 606.431 459.076 605.823C458.781 605.788 458.486 605.684 458.208 605.684C453.517 605.719 451.433 606.9 450.755 609.94C449.574 615.325 449.678 620.745 450.651 626.148C450.964 627.85 452.041 628.945 453.708 629.397C456.366 630.109 459.059 630.126 461.717 629.397C463.541 628.91 464.74 627.711 465 625.818C465.365 623.299 465.591 620.763 465.817 618.713L465.799 618.73Z" fill="#171717"/>
<path d="M546.612 617.879C546.403 623.09 546.073 628.215 544.319 633.166C543.051 636.727 540.619 639.107 537.04 640.115C534.313 640.896 531.498 641.556 528.684 641.73C522.847 642.095 517.011 642.182 511.243 640.757C505.684 639.368 502.245 636.032 500.924 630.438C499.569 624.636 499.239 618.782 499.813 612.893C500.09 610.062 500.473 607.23 501.081 604.468C502.175 599.534 505.18 596.303 510.201 595.105C518.47 593.124 526.756 593.228 535.06 594.844C541.244 596.043 544.423 600.125 545.361 606.066C545.969 609.975 546.212 613.953 546.629 617.896L546.612 617.879ZM531.029 618.661C530.838 616.159 530.752 614.144 530.526 612.146C530.039 607.786 528.65 606.413 524.376 605.823C524.029 605.771 523.699 605.701 523.351 605.667C519.234 605.302 516.541 606.952 515.812 610.583C514.804 615.673 514.909 620.815 515.795 625.939C516.125 627.833 517.254 629.014 519.112 629.483C521.683 630.108 524.272 630.126 526.843 629.448C528.719 628.945 529.952 627.746 530.23 625.783C530.578 623.264 530.804 620.728 531.029 618.661Z" fill="#171717"/>
<path d="M582.136 602.835C582.345 602.401 582.57 601.966 582.744 601.532C584.325 597.415 587.365 594.879 591.621 594.184C594.401 593.732 597.336 593.611 600.116 594.028C607.151 595.07 611.095 599.621 611.199 606.761C611.338 617.861 611.234 628.962 611.268 640.08C611.268 641.226 610.851 641.643 609.705 641.643C605.727 641.609 601.731 641.574 597.753 641.643C596.277 641.678 595.773 641.192 595.79 639.715C595.842 630.821 595.825 621.926 595.808 613.032C595.808 612.25 595.808 611.451 595.686 610.687C594.991 606.57 593.289 605.58 589.189 605.753C584.308 605.944 582.101 608.394 582.015 613.327C581.876 622.013 581.823 630.716 581.754 639.402C581.737 641.609 581.754 641.626 579.548 641.626C575.709 641.626 571.869 641.591 568.03 641.643C566.762 641.661 566.293 641.226 566.293 639.941C566.328 625.401 566.328 610.843 566.293 596.303C566.293 595.105 566.71 594.636 567.926 594.636C571.956 594.688 575.987 594.688 580.034 594.636C581.285 594.636 581.823 595.035 581.771 596.338C581.702 598.475 581.754 600.629 581.754 602.765L582.153 602.818L582.136 602.835Z" fill="#171717"/>
<path d="M639.412 627.051C641.48 627.051 643.547 627.086 645.614 627.051C646.604 627.034 647.195 627.294 647.264 628.406C647.403 630.3 648.55 631.498 650.357 631.585C653.431 631.741 656.524 631.759 659.581 631.533C661.457 631.394 662.135 630.317 662.239 628.406C662.378 625.87 661.77 624.48 659.894 624.063C657.896 623.611 655.811 623.542 653.779 623.316C649.731 622.882 645.614 622.83 641.653 621.978C633.819 620.276 631.039 614.821 631.647 607.143C631.89 604.068 632.672 601.132 634.739 598.7C636.98 596.06 640.038 594.983 643.286 594.479C650.773 593.35 658.261 593.211 665.73 594.653C667.016 594.896 668.284 595.365 669.5 595.904C674.399 598.04 675.268 602.54 675.163 606.605C675.163 606.969 674.468 607.612 674.069 607.612C669.882 607.682 665.713 607.682 661.527 607.612C661.11 607.612 660.484 606.917 660.345 606.448C659.842 604.711 658.678 603.912 656.993 603.86C654.699 603.79 652.389 603.738 650.096 603.912C647.751 604.086 646.761 605.197 646.639 607.352C646.5 609.645 647.334 610.913 649.61 611.364C651.573 611.747 653.605 611.833 655.603 612.007C659.425 612.337 663.281 612.355 667.033 612.98C673.86 614.109 677.265 618.348 677.3 625.262C677.3 627.068 677.213 628.91 676.935 630.682C676.049 636.432 672.888 639.68 667.016 640.931C660.45 642.321 653.814 642.025 647.178 641.678C645.076 641.574 642.956 641.278 640.906 640.844C635.643 639.75 632.585 636.449 631.838 631.116C631.178 626.339 631.161 627.086 635.382 627.034C636.702 627.034 638.04 627.034 639.36 627.034L639.412 627.051Z" fill="#171717"/>
<path d="M913.242 611.816C911.123 611.816 909.004 611.868 906.902 611.782C906.433 611.764 905.668 611.26 905.564 610.861C904.452 606.448 902.837 605.267 898.216 605.701C897.538 605.771 896.844 605.858 896.166 605.979C894.151 606.362 892.622 607.456 892.344 609.541C891.945 612.494 891.719 615.482 891.597 618.47C891.528 620.467 891.632 622.5 891.91 624.48C892.518 628.719 893.508 629.657 897.782 629.935C899.38 630.039 900.995 629.709 902.594 629.483C904.105 629.275 904.869 628.25 905.113 626.791C905.217 626.217 905.321 625.627 905.39 625.053C905.611 623.444 906.554 622.639 908.222 622.639C911.905 622.639 915.605 622.674 919.288 622.639C920.504 622.639 920.938 623.073 920.921 624.272C920.834 627.937 920.347 631.498 918.68 634.834C917.36 637.492 915.327 639.368 912.495 640.149C909.959 640.862 907.336 641.539 904.713 641.696C897.99 642.112 891.233 642.477 884.77 639.854C881.8 638.656 879.715 636.536 878.43 633.618C876.779 629.865 876.293 625.87 876.067 621.84C875.754 615.933 875.928 610.062 877.683 604.329C879.003 600.004 881.817 597.016 886.038 595.661C889.096 594.688 892.344 593.941 895.523 593.854C900.057 593.732 904.678 593.993 909.16 594.653C918.489 596.043 920.886 603.582 920.886 610.67C920.886 611.59 920.347 611.834 919.548 611.816C917.429 611.816 915.327 611.816 913.208 611.816H913.242Z" fill="#171717"/>
<path d="M823.742 618.696C823.742 615.013 823.708 611.33 823.76 607.647C823.777 606.396 823.395 605.91 822.075 605.91C818.114 605.91 818.114 605.858 818.114 601.932C818.114 599.969 818.131 598.006 818.114 596.043C818.114 595.053 818.496 594.584 819.521 594.636C820.251 594.671 820.998 594.566 821.727 594.636C823.239 594.81 823.864 594.271 823.777 592.673C823.655 590.658 823.777 588.643 823.725 586.628C823.69 585.412 824.055 584.838 825.393 584.856C829.423 584.908 833.453 584.908 837.483 584.856C838.786 584.838 839.22 585.325 839.186 586.593C839.116 588.695 839.22 590.814 839.151 592.933C839.099 594.219 839.551 594.653 840.853 594.636C845.526 594.584 850.199 594.601 854.872 594.618C856.801 594.618 856.87 594.688 856.87 596.599C856.87 599.048 856.87 601.515 856.87 603.964C856.87 605.858 856.801 605.927 854.838 605.927C850.269 605.927 845.683 605.98 841.114 605.91C839.672 605.893 839.116 606.258 839.134 607.804C839.22 613.797 839.168 619.79 839.168 625.783C839.168 626.374 839.203 626.965 839.307 627.538C839.655 629.727 840.35 630.404 842.278 630.526C844.05 630.63 845.44 629.744 845.909 627.937C846.239 626.617 846.36 625.227 846.43 623.872C846.482 622.847 846.76 622.326 847.889 622.344C851.085 622.378 854.282 622.361 857.478 622.344C858.329 622.344 858.972 622.57 858.903 623.56C858.694 626.739 858.694 629.952 858.173 633.079C857.391 637.7 854.386 640.41 849.8 641.244C844.137 642.286 838.439 642.321 832.793 641.157C826.904 639.941 823.847 635.946 823.742 629.605C823.69 625.974 823.742 622.326 823.742 618.696Z" fill="#171717"/>
<path d="M784.186 617.966C784.186 610.843 784.221 603.721 784.152 596.598C784.152 595.139 784.603 594.601 786.097 594.635C790.023 594.722 793.967 594.688 797.91 594.635C799.178 594.635 799.647 595.052 799.647 596.355C799.613 610.895 799.613 625.435 799.647 639.993C799.647 641.33 799.074 641.661 797.858 641.643C793.932 641.591 789.989 641.574 786.045 641.643C784.638 641.661 784.152 641.192 784.152 639.784C784.204 632.506 784.169 625.244 784.169 617.966H784.186Z" fill="#171717"/>
<path d="M791.814 586.766C789.747 586.766 787.697 586.749 785.63 586.766C784.639 586.766 784.188 586.384 784.188 585.376C784.205 582.336 784.205 579.296 784.188 576.256C784.188 575.266 784.587 574.849 785.595 574.849C789.816 574.866 794.037 574.866 798.259 574.849C799.301 574.849 799.631 575.335 799.614 576.308C799.596 579.296 799.579 582.301 799.614 585.289C799.614 586.349 799.197 586.801 798.137 586.783C796.018 586.749 793.916 586.783 791.796 586.783L791.814 586.766Z" fill="#171717"/>
<path d="M372.391 851.211C372.565 850.777 372.756 850.36 372.878 849.909C376.56 837.175 380.261 824.424 383.909 811.674C384.308 810.301 384.951 809.815 386.393 809.832C394.748 809.902 403.122 809.867 411.477 809.867C413.406 809.867 413.458 809.919 413.458 811.865C413.458 832.797 413.458 853.73 413.475 874.663C413.475 876.105 413.11 876.678 411.564 876.644C406.839 876.557 402.114 876.574 397.406 876.644C396.051 876.644 395.582 876.192 395.634 874.854C395.947 866.759 396.225 858.664 396.503 850.569C396.607 847.668 396.729 844.784 396.798 841.883C396.937 836.932 397.042 831.964 397.163 827.013C397.163 826.648 397.076 826.283 396.711 825.866C396.555 826.231 396.381 826.596 396.26 826.978C391.1 842.873 385.906 858.751 380.799 874.646C380.295 876.192 379.566 876.696 377.967 876.661C373.989 876.557 369.994 876.591 366.016 876.644C364.956 876.644 364.418 876.279 364.087 875.271C359.067 859.81 354.012 844.35 348.974 828.871C348.609 827.777 348.262 826.665 347.897 825.571L347.341 825.623C347.341 826.839 347.306 828.055 347.341 829.254C347.498 832.884 347.723 836.515 347.845 840.128C348.088 847.737 348.262 855.346 348.505 862.955C348.627 866.829 348.87 870.702 349.026 874.576C349.096 876.47 348.957 876.609 347.081 876.609C342.303 876.609 337.544 876.574 332.766 876.626C331.394 876.644 330.977 876.122 330.977 874.82C330.994 853.748 330.994 832.658 330.977 811.587C330.977 810.353 331.359 809.832 332.662 809.832C341.018 809.867 349.391 809.884 357.747 809.832C359.084 809.832 359.536 810.44 359.866 811.552C363.705 824.251 367.579 836.932 371.436 849.631C371.592 850.169 371.801 850.69 371.992 851.211H372.356H372.391Z" fill="white"/>
<path d="M262.897 716.894C261.664 721.341 260.326 725.753 259.215 730.218C256.852 739.772 255.393 749.466 254.837 759.298C254.021 773.942 255.74 788.326 258.989 802.553C261.699 814.383 264.843 826.109 267.345 837.974C268.648 844.141 268.96 850.517 269.707 856.788C269.742 857.066 269.794 857.344 269.898 858.038C270.419 857.309 270.784 856.892 271.062 856.423C278.688 843.464 277.542 827.377 268.057 815.704C266.65 813.967 265.712 812.195 265.295 809.988C264.061 803.422 262.689 796.89 261.404 790.341C261.299 789.785 261.299 789.212 261.212 788.256C269.69 791.939 276.604 797.133 282.163 804.047C290.484 814.401 294.722 826.266 294.34 839.538C293.367 872.683 265.243 891.392 244.397 892C244.536 891.548 244.605 891.132 244.779 890.767C249.417 880.378 251.988 869.504 252.822 858.177C253.552 848.31 253.135 838.461 252.231 828.628C251.206 817.58 249.973 806.549 249.243 795.5C248.705 787.179 248.41 778.806 248.74 770.468C249.452 752.193 253.829 734.734 261.89 718.249C262.133 717.727 262.411 717.241 262.672 716.72L262.915 716.859L262.897 716.894Z" fill="white"/>
<path d="M214.605 790.705C214.605 791.452 214.657 792.06 214.605 792.668C214.17 797.706 213.684 802.727 213.25 807.764C213.093 809.519 213.128 811.308 212.868 813.045C212.729 814.018 212.364 815.095 211.773 815.86C205.936 823.347 203.487 831.841 204.13 841.222C204.512 846.694 206.266 851.784 209.046 856.527C209.254 856.891 209.567 857.187 210.105 857.864C210.905 855.745 211.686 853.973 212.26 852.132C214.9 843.793 216.203 835.229 216.811 826.526C217.384 818.257 217.94 809.988 218.583 801.719C220.112 782.35 223.534 763.345 230.222 745.035C231.698 740.97 233.366 736.975 234.947 732.962C235.051 732.701 235.225 732.458 235.572 732.302C234.964 734.247 234.356 736.193 233.766 738.139C230.691 748.18 228.624 758.429 227.494 768.834C226.956 773.699 226.73 778.615 226.539 783.514C226.331 788.812 226.209 794.11 226.261 799.409C226.365 810.301 226.921 821.21 226.747 832.102C226.452 849.978 221.536 866.481 210.679 880.969C209.393 882.688 209.341 882.74 207.587 881.368C195.652 872.074 188.443 859.931 186.497 844.974C184.482 829.601 188.617 815.773 198.432 803.717C202.705 798.488 207.917 794.336 213.771 791.001C213.962 790.879 214.205 790.844 214.605 790.705Z" fill="white"/>
<path d="M747.151 865.804C747.585 862.92 748.019 860.036 748.436 857.152C749.722 848.414 751.025 839.677 752.293 830.921C752.414 830.035 752.814 829.618 753.735 829.618C757.765 829.618 761.795 829.636 765.825 829.618C767.076 829.618 766.989 830.331 766.833 831.182C765.825 836.932 764.852 842.699 763.845 848.449C762.299 857.309 760.735 866.151 759.241 875.01C759.033 876.244 758.547 876.643 757.331 876.626C751.042 876.574 744.736 876.574 738.448 876.626C737.232 876.626 736.745 876.227 736.519 875.01C734.626 865.074 732.663 855.155 730.717 845.218C730.596 844.61 730.457 844.002 730.005 843.377C729.727 844.732 729.414 846.087 729.154 847.442C727.434 856.458 725.714 865.491 724.046 874.524C723.768 876.035 723.247 876.678 721.58 876.643C715.43 876.539 709.28 876.574 703.131 876.643C701.741 876.643 701.116 876.227 700.873 874.819C698.302 860.314 695.696 845.809 693.073 831.321C692.812 829.931 693.351 829.584 694.619 829.601C698.354 829.636 702.089 829.688 705.824 829.584C707.3 829.549 707.804 830.122 707.978 831.477C708.759 837.314 709.593 843.151 710.41 848.988C711.122 854.147 711.834 859.289 712.564 864.449C712.633 864.918 712.79 865.387 713.207 865.908C713.345 865.439 713.519 864.97 713.623 864.501C715.969 853.452 718.314 842.404 720.607 831.338C720.867 830.105 721.336 829.584 722.639 829.601C727.556 829.653 732.472 829.653 737.388 829.601C738.708 829.601 739.16 830.122 739.42 831.338C741.713 842.404 744.059 853.452 746.404 864.501C746.491 864.952 746.647 865.387 746.769 865.821H747.133L747.151 865.804Z" fill="white"/>
<path d="M956.41 837.835C956.566 837.505 956.757 837.192 956.879 836.862C958.547 832.345 961.778 829.618 966.538 829.062C969.143 828.749 971.871 828.628 974.459 829.027C981.477 830.104 985.438 834.638 985.525 841.761C985.664 852.861 985.56 863.962 985.594 875.08C985.594 876.226 985.177 876.643 984.031 876.643C980.053 876.608 976.057 876.574 972.079 876.643C970.603 876.678 970.116 876.191 970.116 874.698C970.168 865.803 970.151 856.909 970.134 848.015C970.134 847.233 970.134 846.434 970.012 845.669C969.317 841.552 967.615 840.562 963.515 840.736C958.634 840.927 956.427 843.376 956.34 848.31C956.202 856.996 956.149 865.699 956.08 874.385C956.063 876.608 956.08 876.608 953.874 876.608C950.035 876.608 946.195 876.574 942.356 876.626C941.088 876.643 940.619 876.209 940.619 874.923C940.637 853.799 940.637 832.675 940.619 811.534C940.619 810.266 941.071 809.797 942.339 809.814C946.265 809.866 950.208 809.884 954.134 809.814C955.611 809.78 956.097 810.266 956.08 811.76C956.028 819.873 956.045 827.968 956.045 836.08V837.765L956.375 837.817L956.41 837.835Z" fill="white"/>
<path d="M263.333 692.139C262.742 693.233 262.169 694.345 261.561 695.422C251.589 713.523 245.162 732.806 242.278 753.27C240.906 762.981 240.489 772.778 241.166 782.524C241.774 791.314 243.39 800.034 244.38 808.824C245.092 815.009 245.596 821.228 246.013 827.447C246.274 831.303 246.378 835.195 246.274 839.069C245.77 856.805 242.365 873.881 234.374 889.863C233.314 891.965 233.28 892.139 231.039 891.566C227.182 890.593 223.395 889.394 219.574 888.317C218.219 887.935 218.027 887.362 218.809 886.146C223.169 879.319 226.609 872.057 229.076 864.327C231.595 856.423 233.158 848.345 233.61 840.059C233.87 835.403 234.218 830.748 234.114 826.092C233.957 818.778 233.436 811.482 233.071 804.186C232.863 800.017 232.55 795.865 232.446 791.696C232.342 787.475 232.342 783.271 232.429 779.049C232.689 766.802 234.756 754.816 238.074 743.055C240.802 733.431 244.502 724.172 248.984 715.243C252.944 707.374 257.531 699.869 262.568 692.643C262.725 692.417 262.916 692.208 263.09 692L263.333 692.139Z" fill="white"/>
<path d="M481.382 852.914C481.173 858.073 480.843 863.146 479.141 868.062C477.855 871.745 475.336 874.159 471.653 875.167C468.978 875.914 466.199 876.557 463.437 876.73C457.6 877.078 451.745 877.182 445.995 875.74C440.437 874.35 437.014 870.98 435.711 865.404C434.374 859.654 434.044 853.852 434.6 847.998C434.878 845.079 435.277 842.143 435.92 839.277C437.032 834.396 440.072 831.251 445.023 830.07C453.292 828.107 461.578 828.211 469.882 829.827C476.066 831.043 479.227 835.125 480.148 841.066C480.756 844.975 480.999 848.953 481.399 852.896L481.382 852.914ZM465.799 853.73C465.608 851.229 465.521 849.214 465.313 847.216C464.844 842.804 463.471 841.431 459.076 840.823C458.781 840.788 458.486 840.684 458.208 840.684C453.517 840.719 451.433 841.9 450.755 844.94C449.574 850.325 449.678 855.745 450.651 861.148C450.964 862.85 452.041 863.945 453.708 864.397C456.366 865.109 459.059 865.126 461.717 864.397C463.541 863.91 464.74 862.711 465 860.818C465.365 858.299 465.591 855.763 465.817 853.713L465.799 853.73Z" fill="white"/>
<path d="M546.612 852.879C546.403 858.09 546.073 863.215 544.319 868.166C543.051 871.727 540.619 874.107 537.04 875.115C534.313 875.896 531.498 876.556 528.684 876.73C522.847 877.095 517.011 877.182 511.243 875.757C505.684 874.368 502.245 871.032 500.924 865.438C499.569 859.636 499.239 853.782 499.813 847.893C500.09 845.062 500.473 842.23 501.081 839.468C502.175 834.534 505.18 831.303 510.201 830.105C518.47 828.124 526.756 828.228 535.06 829.844C541.244 831.043 544.423 835.125 545.361 841.066C545.969 844.975 546.212 848.953 546.629 852.896L546.612 852.879ZM531.029 853.661C530.838 851.159 530.752 849.144 530.526 847.146C530.039 842.786 528.65 841.413 524.376 840.823C524.029 840.771 523.699 840.701 523.351 840.667C519.234 840.302 516.541 841.952 515.812 845.583C514.804 850.673 514.909 855.815 515.795 860.939C516.125 862.833 517.254 864.014 519.112 864.483C521.683 865.108 524.272 865.126 526.843 864.448C528.719 863.945 529.952 862.746 530.23 860.783C530.578 858.264 530.804 855.728 531.029 853.661Z" fill="white"/>
<path d="M582.136 837.835C582.345 837.401 582.57 836.966 582.744 836.532C584.325 832.415 587.365 829.879 591.621 829.184C594.401 828.732 597.336 828.611 600.116 829.028C607.151 830.07 611.095 834.621 611.199 841.761C611.338 852.861 611.234 863.962 611.268 875.08C611.268 876.226 610.851 876.643 609.705 876.643C605.727 876.609 601.731 876.574 597.753 876.643C596.277 876.678 595.773 876.192 595.79 874.715C595.842 865.821 595.825 856.926 595.808 848.032C595.808 847.25 595.808 846.451 595.686 845.687C594.991 841.57 593.289 840.58 589.189 840.753C584.308 840.944 582.101 843.394 582.015 848.327C581.876 857.013 581.823 865.716 581.754 874.402C581.737 876.609 581.754 876.626 579.548 876.626C575.709 876.626 571.869 876.591 568.03 876.643C566.762 876.661 566.293 876.226 566.293 874.941C566.328 860.401 566.328 845.843 566.293 831.303C566.293 830.105 566.71 829.636 567.926 829.636C571.956 829.688 575.987 829.688 580.034 829.636C581.285 829.636 581.823 830.035 581.771 831.338C581.702 833.475 581.754 835.629 581.754 837.765L582.153 837.818L582.136 837.835Z" fill="white"/>
<path d="M639.412 862.051C641.48 862.051 643.547 862.086 645.614 862.051C646.604 862.034 647.195 862.294 647.264 863.406C647.403 865.3 648.55 866.498 650.357 866.585C653.431 866.741 656.524 866.759 659.581 866.533C661.457 866.394 662.135 865.317 662.239 863.406C662.378 860.87 661.77 859.48 659.894 859.063C657.896 858.611 655.811 858.542 653.779 858.316C649.731 857.882 645.614 857.83 641.653 856.978C633.819 855.276 631.039 849.821 631.647 842.143C631.89 839.068 632.672 836.132 634.739 833.7C636.98 831.06 640.038 829.983 643.286 829.479C650.773 828.35 658.261 828.211 665.73 829.653C667.016 829.896 668.284 830.365 669.5 830.904C674.399 833.04 675.268 837.54 675.163 841.605C675.163 841.969 674.468 842.612 674.069 842.612C669.882 842.682 665.713 842.682 661.527 842.612C661.11 842.612 660.484 841.917 660.345 841.448C659.842 839.711 658.678 838.912 656.993 838.86C654.699 838.79 652.389 838.738 650.096 838.912C647.751 839.086 646.761 840.197 646.639 842.352C646.5 844.645 647.334 845.913 649.61 846.364C651.573 846.747 653.605 846.833 655.603 847.007C659.425 847.337 663.281 847.355 667.033 847.98C673.86 849.109 677.265 853.348 677.3 860.262C677.3 862.068 677.213 863.91 676.935 865.682C676.049 871.432 672.888 874.68 667.016 875.931C660.45 877.321 653.814 877.025 647.178 876.678C645.076 876.574 642.956 876.278 640.906 875.844C635.643 874.75 632.585 871.449 631.838 866.116C631.178 861.339 631.161 862.086 635.382 862.034C636.702 862.034 638.04 862.034 639.36 862.034L639.412 862.051Z" fill="white"/>
<path d="M913.242 846.816C911.123 846.816 909.004 846.868 906.902 846.782C906.433 846.764 905.668 846.26 905.564 845.861C904.452 841.448 902.837 840.267 898.216 840.701C897.538 840.771 896.844 840.858 896.166 840.979C894.151 841.362 892.622 842.456 892.344 844.541C891.945 847.494 891.719 850.482 891.597 853.47C891.528 855.467 891.632 857.5 891.91 859.48C892.518 863.719 893.508 864.657 897.782 864.935C899.38 865.039 900.995 864.709 902.594 864.483C904.105 864.275 904.869 863.25 905.113 861.791C905.217 861.217 905.321 860.627 905.39 860.053C905.611 858.444 906.554 857.639 908.222 857.639C911.905 857.639 915.605 857.674 919.288 857.639C920.504 857.639 920.938 858.073 920.921 859.272C920.834 862.937 920.347 866.498 918.68 869.834C917.36 872.492 915.327 874.368 912.495 875.149C909.959 875.862 907.336 876.539 904.713 876.696C897.99 877.112 891.233 877.477 884.77 874.854C881.8 873.656 879.715 871.536 878.43 868.618C876.779 864.865 876.293 860.87 876.067 856.84C875.754 850.933 875.928 845.062 877.683 839.329C879.003 835.004 881.817 832.016 886.038 830.661C889.096 829.688 892.344 828.941 895.523 828.854C900.057 828.732 904.678 828.993 909.16 829.653C918.489 831.043 920.886 838.582 920.886 845.67C920.886 846.59 920.347 846.834 919.548 846.816C917.429 846.816 915.327 846.816 913.208 846.816H913.242Z" fill="white"/>
<path d="M823.742 853.696C823.742 850.013 823.708 846.33 823.76 842.647C823.777 841.396 823.395 840.91 822.075 840.91C818.114 840.91 818.114 840.858 818.114 836.932C818.114 834.969 818.131 833.006 818.114 831.043C818.114 830.053 818.496 829.584 819.521 829.636C820.251 829.671 820.998 829.566 821.727 829.636C823.239 829.81 823.864 829.271 823.777 827.673C823.655 825.658 823.777 823.643 823.725 821.628C823.69 820.412 824.055 819.838 825.393 819.856C829.423 819.908 833.453 819.908 837.483 819.856C838.786 819.838 839.22 820.325 839.186 821.593C839.116 823.695 839.22 825.814 839.151 827.933C839.099 829.219 839.551 829.653 840.853 829.636C845.526 829.584 850.199 829.601 854.872 829.618C856.801 829.618 856.87 829.688 856.87 831.599C856.87 834.048 856.87 836.515 856.87 838.964C856.87 840.858 856.801 840.927 854.838 840.927C850.269 840.927 845.683 840.98 841.114 840.91C839.672 840.893 839.116 841.258 839.134 842.804C839.22 848.797 839.168 854.79 839.168 860.783C839.168 861.374 839.203 861.965 839.307 862.538C839.655 864.727 840.35 865.404 842.278 865.526C844.05 865.63 845.44 864.744 845.909 862.937C846.239 861.617 846.36 860.227 846.43 858.872C846.482 857.847 846.76 857.326 847.889 857.344C851.085 857.378 854.282 857.361 857.478 857.344C858.329 857.344 858.972 857.57 858.903 858.56C858.694 861.739 858.694 864.952 858.173 868.079C857.391 872.7 854.386 875.41 849.8 876.244C844.137 877.286 838.439 877.321 832.793 876.157C826.904 874.941 823.847 870.946 823.742 864.605C823.69 860.974 823.742 857.326 823.742 853.696Z" fill="white"/>
<path d="M784.186 852.966C784.186 845.843 784.221 838.721 784.152 831.598C784.152 830.139 784.603 829.601 786.097 829.635C790.023 829.722 793.967 829.688 797.91 829.635C799.178 829.635 799.647 830.052 799.647 831.355C799.613 845.895 799.613 860.435 799.647 874.993C799.647 876.33 799.074 876.661 797.858 876.643C793.932 876.591 789.989 876.574 786.045 876.643C784.638 876.661 784.152 876.192 784.152 874.784C784.204 867.506 784.169 860.244 784.169 852.966H784.186Z" fill="white"/>
<path d="M791.814 821.766C789.747 821.766 787.697 821.749 785.63 821.766C784.639 821.766 784.188 821.384 784.188 820.376C784.205 817.336 784.205 814.296 784.188 811.256C784.188 810.266 784.587 809.849 785.595 809.849C789.816 809.866 794.037 809.866 798.259 809.849C799.301 809.849 799.631 810.335 799.614 811.308C799.596 814.296 799.579 817.302 799.614 820.289C799.614 821.349 799.197 821.801 798.137 821.783C796.018 821.749 793.916 821.783 791.796 821.783L791.814 821.766Z" fill="white"/>
<rect width="1904" height="112" fill="#373737"/>
<path d="M870.403 75V38.6364H874.807V71.0938H891.71V75H870.403ZM927.794 56.8182C927.794 60.6534 927.102 63.9678 925.717 66.7614C924.332 69.5549 922.432 71.7093 920.017 73.2244C917.602 74.7396 914.844 75.4972 911.743 75.4972C908.642 75.4972 905.884 74.7396 903.469 73.2244C901.054 71.7093 899.154 69.5549 897.769 66.7614C896.384 63.9678 895.692 60.6534 895.692 56.8182C895.692 52.983 896.384 49.6686 897.769 46.875C899.154 44.0814 901.054 41.9271 903.469 40.4119C905.884 38.8968 908.642 38.1392 911.743 38.1392C914.844 38.1392 917.602 38.8968 920.017 40.4119C922.432 41.9271 924.332 44.0814 925.717 46.875C927.102 49.6686 927.794 52.983 927.794 56.8182ZM923.533 56.8182C923.533 53.6695 923.006 51.0121 921.953 48.8459C920.911 46.6797 919.496 45.0402 917.709 43.9276C915.933 42.8149 913.945 42.2585 911.743 42.2585C909.541 42.2585 907.547 42.8149 905.759 43.9276C903.984 45.0402 902.569 46.6797 901.516 48.8459C900.474 51.0121 899.953 53.6695 899.953 56.8182C899.953 59.9669 900.474 62.6243 901.516 64.7905C902.569 66.9567 903.984 68.5961 905.759 69.7088C907.547 70.8215 909.541 71.3778 911.743 71.3778C913.945 71.3778 915.933 70.8215 917.709 69.7088C919.496 68.5961 920.911 66.9567 921.953 64.7905C923.006 62.6243 923.533 59.9669 923.533 56.8182ZM960.056 50C959.666 48.8045 959.151 47.7332 958.512 46.7862C957.884 45.8274 957.133 45.0107 956.257 44.3359C955.392 43.6612 954.41 43.1463 953.309 42.7912C952.208 42.4361 951.001 42.2585 949.687 42.2585C947.533 42.2585 945.574 42.8149 943.81 43.9276C942.046 45.0402 940.643 46.6797 939.602 48.8459C938.56 51.0121 938.039 53.6695 938.039 56.8182C938.039 59.9669 938.566 62.6243 939.619 64.7905C940.673 66.9567 942.099 68.5961 943.899 69.7088C945.698 70.8215 947.722 71.3778 949.971 71.3778C952.054 71.3778 953.889 70.9339 955.475 70.0462C957.073 69.1465 958.316 67.88 959.204 66.2464C960.104 64.6011 960.553 62.6657 960.553 60.4403L961.903 60.7244H950.965V56.8182H964.815V60.7244C964.815 63.7192 964.176 66.3234 962.897 68.5369C961.631 70.7505 959.879 72.4669 957.642 73.6861C955.416 74.8935 952.859 75.4972 949.971 75.4972C946.751 75.4972 943.922 74.7396 941.484 73.2244C939.057 71.7093 937.163 69.5549 935.802 66.7614C934.453 63.9678 933.778 60.6534 933.778 56.8182C933.778 53.9418 934.163 51.3553 934.932 49.0589C935.713 46.7507 936.814 44.7857 938.235 43.1641C939.655 41.5424 941.336 40.2995 943.277 39.4354C945.218 38.5713 947.355 38.1392 949.687 38.1392C951.605 38.1392 953.392 38.4292 955.049 39.0092C956.718 39.5774 958.204 40.3883 959.506 41.4418C960.82 42.4834 961.915 43.7322 962.791 45.1882C963.667 46.6323 964.27 48.2363 964.602 50H960.056ZM1003.04 56.8182C1003.04 60.6534 1002.35 63.9678 1000.96 66.7614C999.576 69.5549 997.676 71.7093 995.261 73.2244C992.847 74.7396 990.089 75.4972 986.987 75.4972C983.886 75.4972 981.128 74.7396 978.713 73.2244C976.298 71.7093 974.398 69.5549 973.013 66.7614C971.629 63.9678 970.936 60.6534 970.936 56.8182C970.936 52.983 971.629 49.6686 973.013 46.875C974.398 44.0814 976.298 41.9271 978.713 40.4119C981.128 38.8968 983.886 38.1392 986.987 38.1392C990.089 38.1392 992.847 38.8968 995.261 40.4119C997.676 41.9271 999.576 44.0814 1000.96 46.875C1002.35 49.6686 1003.04 52.983 1003.04 56.8182ZM998.777 56.8182C998.777 53.6695 998.25 51.0121 997.197 48.8459C996.155 46.6797 994.741 45.0402 992.953 43.9276C991.178 42.8149 989.189 42.2585 986.987 42.2585C984.786 42.2585 982.791 42.8149 981.004 43.9276C979.228 45.0402 977.813 46.6797 976.76 48.8459C975.718 51.0121 975.197 53.6695 975.197 56.8182C975.197 59.9669 975.718 62.6243 976.76 64.7905C977.813 66.9567 979.228 68.5961 981.004 69.7088C982.791 70.8215 984.786 71.3778 986.987 71.3778C989.189 71.3778 991.178 70.8215 992.953 69.7088C994.741 68.5961 996.155 66.9567 997.197 64.7905C998.25 62.6243 998.777 59.9669 998.777 56.8182ZM1030.33 47.7273C1030.12 45.928 1029.25 44.5312 1027.74 43.5369C1026.22 42.5426 1024.36 42.0455 1022.16 42.0455C1020.55 42.0455 1019.14 42.3059 1017.94 42.8267C1016.74 43.3475 1015.8 44.0637 1015.13 44.9751C1014.47 45.8866 1014.14 46.9223 1014.14 48.0824C1014.14 49.053 1014.37 49.8875 1014.83 50.5859C1015.3 51.2725 1015.91 51.8466 1016.64 52.3082C1017.37 52.758 1018.14 53.1309 1018.95 53.4268C1019.75 53.7109 1020.49 53.9418 1021.17 54.1193L1024.86 55.1136C1025.81 55.3622 1026.86 55.7055 1028.02 56.1435C1029.19 56.5814 1030.31 57.1792 1031.38 57.9368C1032.45 58.6825 1033.34 59.6413 1034.04 60.8132C1034.74 61.9851 1035.09 63.4233 1035.09 65.1278C1035.09 67.0928 1034.57 68.8684 1033.54 70.4545C1032.52 72.0407 1031.03 73.3014 1029.07 74.2365C1027.12 75.1716 1024.74 75.6392 1021.95 75.6392C1019.34 75.6392 1017.09 75.219 1015.18 74.3786C1013.29 73.5381 1011.8 72.3662 1010.71 70.8629C1009.63 69.3596 1009.02 67.6136 1008.88 65.625H1013.43C1013.54 66.9981 1014.01 68.1345 1014.81 69.0341C1015.63 69.9219 1016.66 70.5848 1017.9 71.0227C1019.15 71.4489 1020.5 71.6619 1021.95 71.6619C1023.63 71.6619 1025.14 71.3897 1026.48 70.8452C1027.81 70.2888 1028.87 69.5194 1029.65 68.5369C1030.44 67.5426 1030.83 66.3826 1030.83 65.0568C1030.83 63.8494 1030.49 62.867 1029.81 62.1094C1029.14 61.3518 1028.25 60.7363 1027.15 60.2628C1026.05 59.7893 1024.86 59.375 1023.58 59.0199L1019.11 57.7415C1016.27 56.9247 1014.02 55.7588 1012.36 54.2436C1010.7 52.7285 1009.87 50.7457 1009.87 48.2955C1009.87 46.2595 1010.42 44.4839 1011.53 42.9688C1012.64 41.4418 1014.13 40.258 1016 39.4176C1017.88 38.5653 1019.98 38.1392 1022.3 38.1392C1024.65 38.1392 1026.73 38.5594 1028.55 39.3999C1030.38 40.2285 1031.82 41.3648 1032.89 42.8089C1033.96 44.2531 1034.53 45.8925 1034.59 47.7273H1030.33Z" fill="white"/>
</svg>
