<?xml version="1.0" encoding="utf-8"?>
<!-- Generator: Adobe Illustrator 27.3.1, SVG Export Plug-In . SVG Version: 6.00 Build 0)  -->
<svg version="1.1" id="Layer_1" xmlns="http://www.w3.org/2000/svg" xmlns:xlink="http://www.w3.org/1999/xlink" x="0px" y="0px"
	 viewBox="0 0 812.3 219.1" style="enable-background:new 0 0 812.3 219.1;" xml:space="preserve">
<style type="text/css">
	.st0{fill:#6AAACD;}
	.st1{fill:#325362;}
	.st2{fill:#3A728B;}
	.st3{fill:#171717;}
	.st4{fill:#FFFFFF;}
</style>
<path class="st0" d="M194.3-384c0.2-0.4,0.4-0.9,0.5-1.3c3.7-12.7,7.4-25.5,11-38.2c0.4-1.4,1-1.9,2.5-1.8c8.4,0.1,16.7,0,25.1,0
	c1.9,0,2,0.1,2,2c0,20.9,0,41.9,0,62.8c0,1.4-0.4,2-1.9,2c-4.7-0.1-9.4-0.1-14.2,0c-1.4,0-1.8-0.5-1.8-1.8
	c0.3-8.1,0.6-16.2,0.9-24.3c0.1-2.9,0.2-5.8,0.3-8.7c0.1-5,0.2-9.9,0.4-14.9c0-0.4-0.1-0.7-0.5-1.1c-0.2,0.4-0.3,0.7-0.5,1.1
	c-5.2,15.9-10.4,31.8-15.5,47.7c-0.5,1.5-1.2,2.1-2.8,2c-4-0.1-8-0.1-12,0c-1.1,0-1.6-0.4-1.9-1.4c-5-15.5-10.1-30.9-15.1-46.4
	c-0.4-1.1-0.7-2.2-1.1-3.3l-0.6,0.1c0,1.2,0,2.4,0,3.6c0.2,3.6,0.4,7.3,0.5,10.9c0.2,7.6,0.4,15.2,0.7,22.8
	c0.1,3.9,0.4,7.7,0.5,11.6c0.1,1.9-0.1,2-1.9,2c-4.8,0-9.5,0-14.3,0c-1.4,0-1.8-0.5-1.8-1.8c0-21.1,0-42.2,0-63.2
	c0-1.2,0.4-1.8,1.7-1.8c8.4,0,16.7,0.1,25.1,0c1.3,0,1.8,0.6,2.1,1.7c3.8,12.7,7.7,25.4,11.6,38.1c0.2,0.5,0.4,1.1,0.6,1.6H194.3
	L194.3-384z"/>
<path class="st1" d="M84.8-518.3c-1.2,4.4-2.6,8.9-3.7,13.3c-2.4,9.6-3.8,19.2-4.4,29.1c-0.8,14.6,0.9,29,4.2,43.3
	c2.7,11.8,5.9,23.6,8.4,35.4c1.3,6.2,1.6,12.5,2.4,18.8c0,0.3,0.1,0.6,0.2,1.2c0.5-0.7,0.9-1.1,1.2-1.6c7.6-13,6.5-29-3-40.7
	c-1.4-1.7-2.3-3.5-2.8-5.7c-1.2-6.6-2.6-13.1-3.9-19.6c-0.1-0.6-0.1-1.1-0.2-2.1c8.5,3.7,15.4,8.9,21,15.8
	c8.3,10.4,12.6,22.2,12.2,35.5c-1,33.1-29.1,51.9-49.9,52.5c0.1-0.5,0.2-0.9,0.4-1.2c4.6-10.4,7.2-21.3,8-32.6
	c0.7-9.9,0.3-19.7-0.6-29.5c-1-11-2.3-22.1-3-33.1c-0.5-8.3-0.8-16.7-0.5-25c0.7-18.3,5.1-35.7,13.2-52.2c0.2-0.5,0.5-1,0.8-1.5
	L84.8-518.3L84.8-518.3z"/>
<path class="st2" d="M36.5-444.5c0,0.7,0.1,1.4,0,2c-0.4,5-0.9,10.1-1.4,15.1c-0.2,1.8-0.1,3.5-0.4,5.3c-0.1,1-0.5,2-1.1,2.8
	c-5.8,7.5-8.3,16-7.6,25.4c0.4,5.5,2.1,10.6,4.9,15.3c0.2,0.4,0.5,0.7,1.1,1.3c0.8-2.1,1.6-3.9,2.2-5.7c2.6-8.3,3.9-16.9,4.6-25.6
	c0.6-8.3,1.1-16.5,1.8-24.8c1.5-19.4,5-38.4,11.6-56.7c1.5-4.1,3.1-8.1,4.7-12.1c0.1-0.3,0.3-0.5,0.6-0.7c-0.6,1.9-1.2,3.9-1.8,5.8
	c-3.1,10-5.1,20.3-6.3,30.7c-0.5,4.9-0.8,9.8-1,14.7c-0.2,5.3-0.3,10.6-0.3,15.9c0.1,10.9,0.7,21.8,0.5,32.7
	c-0.3,17.9-5.2,34.4-16.1,48.9c-1.3,1.7-1.3,1.8-3.1,0.4c-11.9-9.3-19.1-21.4-21.1-36.4c-2-15.4,2.1-29.2,11.9-41.3
	c4.3-5.2,9.5-9.4,15.3-12.7C35.8-444.4,36.1-444.4,36.5-444.5z"/>
<path class="st0" d="M569-369.4c0.4-2.9,0.9-5.8,1.3-8.7c1.3-8.7,2.6-17.5,3.9-26.2c0.1-0.9,0.5-1.3,1.4-1.3c4,0,8.1,0,12.1,0
	c1.3,0,1.2,0.7,1,1.6c-1,5.8-2,11.5-3,17.3c-1.5,8.9-3.1,17.7-4.6,26.6c-0.2,1.2-0.7,1.6-1.9,1.6c-6.3-0.1-12.6-0.1-18.9,0
	c-1.2,0-1.7-0.4-1.9-1.6c-1.9-9.9-3.9-19.9-5.8-29.8c-0.1-0.6-0.3-1.2-0.7-1.8c-0.3,1.4-0.6,2.7-0.9,4.1c-1.7,9-3.4,18-5.1,27.1
	c-0.3,1.5-0.8,2.2-2.5,2.1c-6.2-0.1-12.3-0.1-18.4,0c-1.4,0-2-0.4-2.3-1.8c-2.6-14.5-5.2-29-7.8-43.5c-0.3-1.4,0.3-1.7,1.5-1.7
	c3.7,0,7.5,0.1,11.2,0c1.5,0,2,0.5,2.2,1.9c0.8,5.8,1.6,11.7,2.4,17.5c0.7,5.2,1.4,10.3,2.2,15.5c0.1,0.5,0.2,0.9,0.6,1.5
	c0.1-0.5,0.3-0.9,0.4-1.4c2.3-11,4.7-22.1,7-33.2c0.3-1.2,0.7-1.8,2-1.7c4.9,0.1,9.8,0.1,14.7,0c1.3,0,1.8,0.5,2,1.7
	c2.3,11.1,4.6,22.1,7,33.2c0.1,0.5,0.2,0.9,0.4,1.3L569-369.4L569-369.4z"/>
<path class="st0" d="M778.3-397.4c0.2-0.3,0.3-0.6,0.5-1c1.7-4.5,4.9-7.2,9.7-7.8c2.6-0.3,5.3-0.4,7.9,0c7,1.1,11,5.6,11.1,12.7
	c0.1,11.1,0,22.2,0.1,33.3c0,1.1-0.4,1.6-1.6,1.6c-4,0-8-0.1-12,0c-1.5,0-2-0.5-2-1.9c0.1-8.9,0-17.8,0-26.7c0-0.8,0-1.6-0.1-2.3
	c-0.7-4.1-2.4-5.1-6.5-4.9c-4.9,0.2-7.1,2.6-7.2,7.6c-0.1,8.7-0.2,17.4-0.3,26.1c0,2.2,0,2.2-2.2,2.2c-3.8,0-7.7,0-11.5,0
	c-1.3,0-1.7-0.4-1.7-1.7c0-21.1,0-42.2,0-63.4c0-1.3,0.5-1.7,1.7-1.7c3.9,0.1,7.9,0.1,11.8,0c1.5,0,2,0.5,1.9,1.9
	c-0.1,8.1,0,16.2,0,24.3v1.7L778.3-397.4L778.3-397.4z"/>
<path class="st2" d="M85.2-543.1c-0.6,1.1-1.2,2.2-1.8,3.3c-10,18.1-16.4,37.4-19.3,57.8c-1.4,9.7-1.8,19.5-1.1,29.3
	c0.6,8.8,2.2,17.5,3.2,26.3c0.7,6.2,1.2,12.4,1.6,18.6c0.3,3.9,0.4,7.7,0.3,11.6c-0.5,17.7-3.9,34.8-11.9,50.8
	c-1.1,2.1-1.1,2.3-3.3,1.7c-3.9-1-7.6-2.2-11.5-3.2c-1.4-0.4-1.5-1-0.8-2.2c4.4-6.8,7.8-14.1,10.3-21.8c2.5-7.9,4.1-16,4.5-24.3
	c0.3-4.7,0.6-9.3,0.5-14c-0.2-7.3-0.7-14.6-1-21.9c-0.2-4.2-0.5-8.3-0.6-12.5c-0.1-4.2-0.1-8.4,0-12.6c0.3-12.2,2.3-24.2,5.6-36
	c2.7-9.6,6.4-18.9,10.9-27.8c4-7.9,8.5-15.4,13.6-22.6c0.2-0.2,0.3-0.4,0.5-0.6L85.2-543.1z"/>
<path class="st0" d="M303.2-382.3c-0.2,5.2-0.5,10.2-2.2,15.1c-1.3,3.7-3.8,6.1-7.5,7.1c-2.7,0.7-5.5,1.4-8.2,1.6
	c-5.8,0.3-11.7,0.5-17.4-1c-5.6-1.4-9-4.8-10.3-10.3c-1.3-5.8-1.7-11.6-1.1-17.4c0.3-2.9,0.7-5.9,1.3-8.7c1.1-4.9,4.2-8,9.1-9.2
	c8.3-2,16.6-1.9,24.9-0.2c6.2,1.2,9.3,5.3,10.3,11.2C302.6-390.3,302.9-386.3,303.2-382.3L303.2-382.3z M287.7-381.5
	c-0.2-2.5-0.3-4.5-0.5-6.5c-0.5-4.4-1.8-5.8-6.2-6.4c-0.3,0-0.6-0.1-0.9-0.1c-4.7,0-6.8,1.2-7.5,4.3c-1.2,5.4-1.1,10.8-0.1,16.2
	c0.3,1.7,1.4,2.8,3.1,3.2c2.7,0.7,5.4,0.7,8,0c1.8-0.5,3-1.7,3.3-3.6C287.2-376.9,287.5-379.5,287.7-381.5L287.7-381.5z"/>
<path class="st0" d="M368.5-382.4c-0.2,5.2-0.5,10.3-2.3,15.3c-1.3,3.6-3.7,5.9-7.3,6.9c-2.7,0.8-5.5,1.4-8.4,1.6
	c-5.8,0.4-11.7,0.5-17.4-1c-5.6-1.4-9-4.7-10.3-10.3c-1.4-5.8-1.7-11.7-1.1-17.5c0.3-2.8,0.7-5.7,1.3-8.4c1.1-4.9,4.1-8.2,9.1-9.4
	c8.3-2,16.6-1.9,24.9-0.3c6.2,1.2,9.4,5.3,10.3,11.2C367.8-390.3,368.1-386.3,368.5-382.4L368.5-382.4z M352.9-381.6
	c-0.2-2.5-0.3-4.5-0.5-6.5c-0.5-4.4-1.9-5.7-6.2-6.3c-0.3-0.1-0.7-0.1-1-0.2c-4.1-0.4-6.8,1.3-7.5,4.9c-1,5.1-0.9,10.2,0,15.4
	c0.3,1.9,1.5,3.1,3.3,3.5c2.6,0.6,5.2,0.6,7.7,0c1.9-0.5,3.1-1.7,3.4-3.7C352.4-377,352.7-379.5,352.9-381.6z"/>
<path class="st0" d="M404-397.4c0.2-0.4,0.4-0.9,0.6-1.3c1.6-4.1,4.6-6.7,8.9-7.3c2.8-0.5,5.7-0.6,8.5-0.2c7,1,11,5.6,11.1,12.7
	c0.1,11.1,0,22.2,0.1,33.3c0,1.1-0.4,1.6-1.6,1.6c-4,0-8-0.1-12,0c-1.5,0-2-0.5-2-1.9c0.1-8.9,0-17.8,0-26.7c0-0.8,0-1.6-0.1-2.3
	c-0.7-4.1-2.4-5.1-6.5-4.9c-4.9,0.2-7.1,2.6-7.2,7.6c-0.1,8.7-0.2,17.4-0.3,26.1c0,2.2,0,2.2-2.2,2.2c-3.8,0-7.7,0-11.5,0
	c-1.3,0-1.7-0.4-1.7-1.7c0-14.5,0-29.1,0-43.6c0-1.2,0.4-1.7,1.6-1.7c4,0.1,8.1,0.1,12.1,0c1.3,0,1.8,0.4,1.7,1.7
	c-0.1,2.1,0,4.3,0,6.4L404-397.4L404-397.4z"/>
<path class="st0" d="M461.3-373.2c2.1,0,4.1,0,6.2,0c1,0,1.6,0.2,1.6,1.4c0.1,1.9,1.3,3.1,3.1,3.2c3.1,0.2,6.2,0.2,9.2-0.1
	c1.9-0.1,2.6-1.2,2.7-3.1c0.1-2.5-0.5-3.9-2.3-4.3c-2-0.5-4.1-0.5-6.1-0.7c-4-0.4-8.2-0.5-12.1-1.3c-7.8-1.7-10.6-7.2-10-14.8
	c0.2-3.1,1-6,3.1-8.4c2.2-2.6,5.3-3.7,8.5-4.2c7.5-1.1,15-1.3,22.4,0.2c1.3,0.2,2.6,0.7,3.8,1.3c4.9,2.1,5.8,6.6,5.7,10.7
	c0,0.4-0.7,1-1.1,1c-4.2,0.1-8.4,0.1-12.5,0c-0.4,0-1-0.7-1.2-1.2c-0.5-1.7-1.7-2.5-3.4-2.6c-2.3-0.1-4.6-0.1-6.9,0.1
	c-2.3,0.2-3.3,1.3-3.5,3.4c-0.1,2.3,0.7,3.6,3,4c2,0.4,4,0.5,6,0.6c3.8,0.3,7.7,0.3,11.4,1c6.8,1.1,10.2,5.4,10.3,12.3
	c0,1.8-0.1,3.6-0.4,5.4c-0.9,5.8-4,9-9.9,10.2c-6.6,1.4-13.2,1.1-19.8,0.7c-2.1-0.1-4.2-0.4-6.3-0.8c-5.3-1.1-8.3-4.4-9.1-9.7
	c-0.7-4.8-0.7-4,3.5-4.1C458.6-373.2,459.9-373.2,461.3-373.2L461.3-373.2z"/>
<path class="st0" d="M735.1-388.4c-2.1,0-4.2,0.1-6.3,0c-0.5,0-1.2-0.5-1.3-0.9c-1.1-4.4-2.7-5.6-7.3-5.2c-0.7,0.1-1.4,0.2-2,0.3
	c-2,0.4-3.5,1.5-3.8,3.6c-0.4,3-0.6,5.9-0.7,8.9c-0.1,2,0,4,0.3,6c0.6,4.2,1.6,5.2,5.9,5.5c1.6,0.1,3.2-0.2,4.8-0.5
	c1.5-0.2,2.3-1.2,2.5-2.7c0.1-0.6,0.2-1.2,0.3-1.7c0.2-1.6,1.2-2.4,2.8-2.4c3.7,0,7.4,0,11.1,0c1.2,0,1.6,0.4,1.6,1.6
	c-0.1,3.7-0.6,7.2-2.2,10.6c-1.3,2.7-3.4,4.5-6.2,5.3c-2.5,0.7-5.2,1.4-7.8,1.5c-6.7,0.4-13.5,0.8-19.9-1.8c-3-1.2-5.1-3.3-6.3-6.2
	c-1.7-3.8-2.1-7.7-2.4-11.8c-0.3-5.9-0.1-11.8,1.6-17.5c1.3-4.3,4.1-7.3,8.4-8.7c3.1-1,6.3-1.7,9.5-1.8c4.5-0.1,9.2,0.1,13.6,0.8
	c9.3,1.4,11.7,8.9,11.7,16c0,0.9-0.5,1.2-1.3,1.1C739.3-388.4,737.2-388.4,735.1-388.4L735.1-388.4z"/>
<path class="st0" d="M645.6-381.5c0-3.7,0-7.4,0-11c0-1.3-0.4-1.7-1.7-1.7c-4,0-4-0.1-4-4c0-2,0-3.9,0-5.9c0-1,0.4-1.5,1.4-1.4
	c0.7,0,1.5-0.1,2.2,0c1.5,0.2,2.1-0.4,2-2c-0.1-2,0-4-0.1-6c0-1.2,0.3-1.8,1.7-1.8c4,0.1,8.1,0.1,12.1,0c1.3,0,1.7,0.5,1.7,1.7
	c-0.1,2.1,0,4.2,0,6.3c-0.1,1.3,0.4,1.7,1.7,1.7c4.7-0.1,9.3,0,14,0c1.9,0,2,0.1,2,2c0,2.4,0,4.9,0,7.4c0,1.9-0.1,2-2,2
	c-4.6,0-9.2,0.1-13.7,0c-1.4,0-2,0.3-2,1.9c0.1,6,0,12,0,18c0,0.6,0,1.2,0.1,1.8c0.3,2.2,1,2.9,3,3c1.8,0.1,3.2-0.8,3.6-2.6
	c0.3-1.3,0.5-2.7,0.5-4.1c0.1-1,0.3-1.5,1.5-1.5c3.2,0,6.4,0,9.6,0c0.9,0,1.5,0.2,1.4,1.2c-0.2,3.2-0.2,6.4-0.7,9.5
	c-0.8,4.6-3.8,7.3-8.4,8.2c-5.7,1-11.4,1.1-17-0.1c-5.9-1.2-8.9-5.2-9.1-11.6C645.6-374.3,645.6-377.9,645.6-381.5z"/>
<path class="st0" d="M606-382.3c0-7.1,0-14.2,0-21.4c0-1.5,0.5-2,1.9-2c3.9,0.1,7.9,0.1,11.8,0c1.3,0,1.7,0.4,1.7,1.7
	c0,14.5,0,29.1,0,43.6c0,1.3-0.6,1.7-1.8,1.6c-3.9-0.1-7.9-0.1-11.8,0c-1.4,0-1.9-0.5-1.9-1.9C606.1-367.7,606-375,606-382.3
	L606-382.3z"/>
<path class="st0" d="M613.7-413.5c-2.1,0-4.1,0-6.2,0c-1,0-1.4-0.4-1.4-1.4c0-3,0-6.1,0-9.1c0-1,0.4-1.4,1.4-1.4c4.2,0,8.4,0,12.7,0
	c1,0,1.4,0.5,1.4,1.5c0,3,0,6,0,9c0,1.1-0.4,1.5-1.5,1.5C617.9-413.5,615.8-413.5,613.7-413.5L613.7-413.5z"/>
<g>
	<path class="st1" d="M999.3-518.7c-1.2,4.4-2.6,8.9-3.7,13.3c-2.4,9.6-3.8,19.2-4.4,29.1c-0.8,14.6,0.9,29,4.2,43.3
		c2.7,11.8,5.8,23.6,8.3,35.4c1.3,6.2,1.6,12.5,2.4,18.8c0,0.3,0.1,0.6,0.2,1.2c0.5-0.7,0.9-1.1,1.2-1.6c7.6-13,6.5-29-3-40.7
		c-1.4-1.7-2.4-3.5-2.8-5.7c-1.2-6.6-2.6-13.1-3.9-19.6c-0.1-0.6-0.1-1.1-0.2-2.1c8.5,3.7,15.4,8.9,21,15.8
		c8.3,10.4,12.6,22.2,12.2,35.5c-1,33.1-29.1,51.9-49.9,52.5c0.1-0.5,0.2-0.9,0.4-1.2c4.6-10.4,7.2-21.3,8-32.6
		c0.7-9.9,0.3-19.7-0.6-29.5c-1-11-2.3-22.1-3-33.1c-0.5-8.3-0.8-16.7-0.5-25c0.7-18.3,5.1-35.7,13.2-52.2c0.2-0.5,0.5-1,0.8-1.5
		L999.3-518.7L999.3-518.7z"/>
	<path class="st2" d="M951-444.9c0,0.7,0.1,1.4,0,2c-0.4,5-0.9,10.1-1.3,15.1c-0.2,1.8-0.1,3.5-0.4,5.3c-0.1,1-0.5,2-1.1,2.8
		c-5.8,7.5-8.3,16-7.6,25.4c0.4,5.5,2.1,10.6,4.9,15.3c0.2,0.4,0.5,0.7,1.1,1.3c0.8-2.1,1.6-3.9,2.2-5.7c2.6-8.3,3.9-16.9,4.6-25.6
		c0.6-8.3,1.1-16.5,1.8-24.8c1.5-19.4,5-38.4,11.6-56.7c1.5-4.1,3.2-8.1,4.7-12.1c0.1-0.3,0.3-0.5,0.6-0.7c-0.6,1.9-1.2,3.9-1.8,5.8
		c-3.1,10-5.2,20.3-6.3,30.7c-0.5,4.9-0.8,9.8-0.9,14.7c-0.2,5.3-0.3,10.6-0.3,15.9c0.1,10.9,0.7,21.8,0.5,32.7
		c-0.3,17.9-5.2,34.4-16.1,48.9c-1.3,1.7-1.3,1.8-3.1,0.4c-11.9-9.3-19.2-21.4-21.1-36.4c-2-15.4,2.1-29.2,11.9-41.3
		c4.3-5.2,9.5-9.4,15.3-12.7C950.3-444.7,950.6-444.8,951-444.9z"/>
	<path class="st2" d="M999.7-543.5c-0.6,1.1-1.2,2.2-1.8,3.3c-10,18.1-16.4,37.4-19.3,57.8c-1.4,9.7-1.8,19.5-1.1,29.3
		c0.6,8.8,2.2,17.5,3.2,26.3c0.7,6.2,1.2,12.4,1.6,18.6c0.3,3.9,0.4,7.7,0.3,11.6c-0.5,17.7-3.9,34.8-11.9,50.8
		c-1.1,2.1-1.1,2.3-3.3,1.7c-3.9-1-7.6-2.2-11.5-3.2c-1.3-0.4-1.5-1-0.8-2.2c4.4-6.8,7.8-14.1,10.3-21.8c2.5-7.9,4.1-16,4.5-24.3
		c0.3-4.7,0.6-9.3,0.5-14c-0.2-7.3-0.7-14.6-1-21.9c-0.2-4.2-0.5-8.3-0.6-12.5c-0.1-4.2-0.1-8.4,0-12.6c0.3-12.2,2.3-24.2,5.6-36
		c2.7-9.6,6.4-18.9,10.9-27.8c4-7.9,8.6-15.4,13.6-22.6c0.2-0.2,0.4-0.4,0.5-0.6L999.7-543.5z"/>
</g>
<g>
	<path class="st3" d="M998.2-234.8c-1.2,4.4-2.6,8.9-3.7,13.3c-2.4,9.6-3.8,19.2-4.4,29.1c-0.8,14.6,0.9,29,4.2,43.3
		c2.7,11.8,5.8,23.6,8.3,35.4c1.3,6.2,1.6,12.5,2.4,18.8c0,0.3,0.1,0.6,0.2,1.2c0.5-0.7,0.9-1.1,1.2-1.6c7.6-13,6.5-29-3-40.7
		c-1.4-1.7-2.4-3.5-2.8-5.7c-1.2-6.6-2.6-13.1-3.9-19.6c-0.1-0.6-0.1-1.1-0.2-2.1c8.5,3.7,15.4,8.9,21,15.8
		c8.3,10.4,12.6,22.2,12.2,35.5c-1,33.1-29.1,51.9-49.9,52.5c0.1-0.5,0.2-0.9,0.4-1.2c4.6-10.4,7.2-21.3,8-32.6
		c0.7-9.9,0.3-19.7-0.6-29.5c-1-11-2.3-22.1-3-33.1c-0.5-8.3-0.8-16.7-0.5-25c0.7-18.3,5.1-35.7,13.2-52.2c0.2-0.5,0.5-1,0.8-1.5
		L998.2-234.8L998.2-234.8z"/>
	<path class="st3" d="M949.9-161c0,0.7,0.1,1.4,0,2c-0.4,5-0.9,10.1-1.3,15.1c-0.2,1.8-0.1,3.5-0.4,5.3c-0.1,1-0.5,2-1.1,2.8
		c-5.8,7.5-8.3,16-7.6,25.4c0.4,5.5,2.1,10.6,4.9,15.3c0.2,0.4,0.5,0.7,1.1,1.3c0.8-2.1,1.6-3.9,2.2-5.7c2.6-8.3,3.9-16.9,4.6-25.6
		c0.6-8.3,1.1-16.5,1.8-24.8c1.5-19.4,5-38.4,11.6-56.7c1.5-4.1,3.2-8.1,4.7-12.1c0.1-0.3,0.3-0.5,0.6-0.7c-0.6,1.9-1.2,3.9-1.8,5.8
		c-3.1,10-5.2,20.3-6.3,30.7c-0.5,4.9-0.8,9.8-0.9,14.7c-0.2,5.3-0.3,10.6-0.3,15.9c0.1,10.9,0.7,21.8,0.5,32.7
		c-0.3,17.9-5.2,34.4-16.1,48.9c-1.3,1.7-1.3,1.8-3.1,0.4c-11.9-9.3-19.2-21.4-21.1-36.4c-2-15.4,2.1-29.2,11.9-41.3
		c4.3-5.2,9.5-9.4,15.3-12.7C949.3-160.8,949.5-160.8,949.9-161z"/>
	<path class="st3" d="M998.6-259.5c-0.6,1.1-1.2,2.2-1.8,3.3c-10,18.1-16.4,37.4-19.3,57.8c-1.4,9.7-1.8,19.5-1.1,29.3
		c0.6,8.8,2.2,17.5,3.2,26.3c0.7,6.2,1.2,12.4,1.6,18.6c0.3,3.9,0.4,7.7,0.3,11.6c-0.5,17.7-3.9,34.8-11.9,50.8
		c-1.1,2.1-1.1,2.3-3.3,1.7c-3.9-1-7.6-2.2-11.5-3.2c-1.3-0.4-1.5-1-0.8-2.2c4.4-6.8,7.8-14.1,10.3-21.8c2.5-7.9,4.1-16,4.5-24.3
		c0.3-4.7,0.6-9.3,0.5-14c-0.2-7.3-0.7-14.6-1-21.9c-0.2-4.2-0.5-8.3-0.6-12.5c-0.1-4.2-0.1-8.4,0-12.6c0.3-12.2,2.3-24.2,5.6-36
		c2.7-9.6,6.4-18.9,10.9-27.8c4-7.9,8.6-15.4,13.6-22.6c0.2-0.2,0.4-0.4,0.5-0.6L998.6-259.5z"/>
</g>
<g>
	<path class="st4" d="M991.6,34.4c-1.2,4.4-2.6,8.9-3.7,13.3c-2.4,9.6-3.8,19.2-4.4,29.1c-0.8,14.6,0.9,29,4.2,43.3
		c2.7,11.8,5.8,23.6,8.3,35.4c1.3,6.2,1.6,12.5,2.4,18.8c0,0.3,0.1,0.6,0.2,1.3c0.5-0.7,0.9-1.1,1.2-1.6c7.6-13,6.5-29-3-40.7
		c-1.4-1.7-2.4-3.5-2.8-5.7c-1.2-6.6-2.6-13.1-3.9-19.6c-0.1-0.6-0.1-1.1-0.2-2.1c8.5,3.7,15.4,8.9,21,15.8
		c8.3,10.4,12.6,22.2,12.2,35.5c-1,33.1-29.1,51.9-49.9,52.5c0.1-0.5,0.2-0.9,0.4-1.2c4.6-10.4,7.2-21.3,8-32.6
		c0.7-9.9,0.3-19.7-0.6-29.5c-1-11-2.3-22.1-3-33.1c-0.5-8.3-0.8-16.7-0.5-25c0.7-18.3,5.1-35.7,13.2-52.2c0.2-0.5,0.5-1,0.8-1.5
		L991.6,34.4L991.6,34.4z"/>
	<path class="st4" d="M943.3,108.3c0,0.7,0.1,1.4,0,2c-0.4,5-0.9,10.1-1.3,15.1c-0.2,1.8-0.1,3.5-0.4,5.3c-0.1,1-0.5,2-1.1,2.8
		c-5.8,7.5-8.3,16-7.6,25.4c0.4,5.5,2.1,10.6,4.9,15.3c0.2,0.4,0.5,0.7,1.1,1.3c0.8-2.1,1.6-3.9,2.2-5.7c2.6-8.3,3.9-16.9,4.6-25.6
		c0.6-8.3,1.1-16.5,1.8-24.8c1.5-19.4,5-38.4,11.6-56.7c1.5-4.1,3.2-8.1,4.7-12.1c0.1-0.3,0.3-0.5,0.6-0.7c-0.6,1.9-1.2,3.9-1.8,5.8
		c-3.1,10-5.2,20.3-6.3,30.7c-0.5,4.9-0.8,9.8-0.9,14.7c-0.2,5.3-0.3,10.6-0.3,15.9c0.1,10.9,0.7,21.8,0.5,32.7
		c-0.3,17.9-5.2,34.4-16.1,48.9c-1.3,1.7-1.3,1.8-3.1,0.4c-11.9-9.3-19.2-21.4-21.1-36.4c-2-15.4,2.1-29.2,11.9-41.3
		c4.3-5.2,9.5-9.4,15.3-12.7C942.7,108.4,942.9,108.4,943.3,108.3z"/>
	<path class="st4" d="M992.1,9.7c-0.6,1.1-1.2,2.2-1.8,3.3c-10,18.1-16.4,37.4-19.3,57.8c-1.4,9.7-1.8,19.5-1.1,29.3
		c0.6,8.8,2.2,17.5,3.2,26.3c0.7,6.2,1.2,12.4,1.6,18.6c0.3,3.9,0.4,7.7,0.3,11.6c-0.5,17.7-3.9,34.8-11.9,50.8
		c-1.1,2.1-1.1,2.3-3.3,1.7c-3.9-1-7.6-2.2-11.5-3.2c-1.3-0.4-1.5-1-0.8-2.2c4.4-6.8,7.8-14.1,10.3-21.8c2.5-7.9,4.1-16,4.5-24.3
		c0.3-4.7,0.6-9.3,0.5-14c-0.2-7.3-0.7-14.6-1-21.9c-0.2-4.2-0.5-8.3-0.6-12.5c-0.1-4.2-0.1-8.4,0-12.6c0.3-12.2,2.3-24.2,5.6-36
		c2.7-9.6,6.4-18.9,10.9-27.8c4-7.9,8.6-15.4,13.6-22.6c0.2-0.2,0.4-0.4,0.5-0.6L992.1,9.7z"/>
</g>
<path class="st3" d="M192.7-100.7c0.2-0.4,0.4-0.9,0.5-1.3c3.7-12.7,7.4-25.5,11-38.2c0.4-1.4,1-1.9,2.5-1.8c8.4,0.1,16.7,0,25.1,0
	c1.9,0,2,0.1,2,2c0,20.9,0,41.9,0,62.8c0,1.4-0.4,2-1.9,2c-4.7-0.1-9.4-0.1-14.2,0c-1.4,0-1.8-0.5-1.8-1.8
	c0.3-8.1,0.6-16.2,0.9-24.3c0.1-2.9,0.2-5.8,0.3-8.7c0.1-5,0.2-9.9,0.4-14.9c0-0.4-0.1-0.7-0.5-1.1c-0.2,0.4-0.3,0.7-0.5,1.1
	c-5.2,15.9-10.4,31.8-15.5,47.7c-0.5,1.5-1.2,2-2.8,2c-4-0.1-8-0.1-12,0c-1.1,0-1.6-0.4-1.9-1.4c-5-15.5-10.1-30.9-15.1-46.4
	c-0.4-1.1-0.7-2.2-1.1-3.3l-0.6,0.1c0,1.2,0,2.4,0,3.6c0.2,3.6,0.4,7.3,0.5,10.9c0.2,7.6,0.4,15.2,0.7,22.8
	c0.1,3.9,0.4,7.7,0.5,11.6c0.1,1.9-0.1,2-1.9,2c-4.8,0-9.5,0-14.3,0c-1.4,0-1.8-0.5-1.8-1.8c0-21.1,0-42.2,0-63.2
	c0-1.2,0.4-1.8,1.7-1.8c8.4,0,16.7,0.1,25.1,0c1.3,0,1.8,0.6,2.1,1.7c3.8,12.7,7.7,25.4,11.6,38.1c0.2,0.5,0.4,1.1,0.6,1.6H192.7
	L192.7-100.7z"/>
<path class="st3" d="M83.2-235c-1.2,4.4-2.6,8.9-3.7,13.3c-2.4,9.6-3.8,19.2-4.4,29.1c-0.8,14.6,0.9,29,4.2,43.3
	c2.7,11.8,5.9,23.6,8.4,35.4c1.3,6.2,1.6,12.5,2.4,18.8c0,0.3,0.1,0.6,0.2,1.2c0.5-0.7,0.9-1.1,1.2-1.6c7.6-13,6.5-29-3-40.7
	c-1.4-1.7-2.3-3.5-2.8-5.7c-1.2-6.6-2.6-13.1-3.9-19.6c-0.1-0.6-0.1-1.1-0.2-2.1c8.5,3.7,15.4,8.9,21,15.8
	c8.3,10.4,12.6,22.2,12.2,35.5c-1,33.1-29.1,51.9-49.9,52.5c0.1-0.5,0.2-0.9,0.4-1.2c4.6-10.4,7.2-21.3,8-32.6
	c0.7-9.9,0.3-19.7-0.6-29.5c-1-11-2.3-22.1-3-33.1c-0.5-8.3-0.8-16.7-0.5-25c0.7-18.3,5.1-35.7,13.2-52.2c0.2-0.5,0.5-1,0.8-1.5
	L83.2-235L83.2-235z"/>
<path class="st3" d="M34.9-161.2c0,0.7,0.1,1.4,0,2c-0.4,5-0.9,10.1-1.4,15.1c-0.2,1.8-0.1,3.5-0.4,5.3c-0.1,1-0.5,2-1.1,2.8
	c-5.8,7.5-8.3,16-7.6,25.4c0.4,5.5,2.1,10.6,4.9,15.3c0.2,0.4,0.5,0.7,1.1,1.3c0.8-2.1,1.6-3.9,2.2-5.7c2.6-8.3,3.9-16.9,4.6-25.6
	c0.6-8.3,1.1-16.5,1.8-24.8c1.5-19.4,5-38.4,11.6-56.7c1.5-4.1,3.1-8.1,4.7-12.1c0.1-0.3,0.3-0.5,0.6-0.7c-0.6,1.9-1.2,3.9-1.8,5.8
	c-3.1,10-5.1,20.3-6.3,30.7c-0.5,4.9-0.8,9.8-1,14.7c-0.2,5.3-0.3,10.6-0.3,15.9c0.1,10.9,0.7,21.8,0.5,32.7
	c-0.3,17.9-5.2,34.4-16.1,48.9c-1.3,1.7-1.3,1.8-3.1,0.4C16-79.8,8.8-92,6.8-106.9c-2-15.4,2.1-29.2,11.9-41.3
	c4.3-5.2,9.5-9.4,15.3-12.7C34.3-161,34.5-161.1,34.9-161.2z"/>
<path class="st3" d="M567.5-86.1c0.4-2.9,0.9-5.8,1.3-8.7c1.3-8.7,2.6-17.5,3.9-26.2c0.1-0.9,0.5-1.3,1.4-1.3c4,0,8.1,0,12.1,0
	c1.3,0,1.2,0.7,1,1.6c-1,5.8-2,11.5-3,17.3c-1.5,8.9-3.1,17.7-4.6,26.6c-0.2,1.2-0.7,1.6-1.9,1.6c-6.3-0.1-12.6-0.1-18.9,0
	c-1.2,0-1.7-0.4-1.9-1.6c-1.9-9.9-3.9-19.9-5.8-29.8c-0.1-0.6-0.3-1.2-0.7-1.8c-0.3,1.4-0.6,2.7-0.9,4.1c-1.7,9-3.4,18-5.1,27.1
	c-0.3,1.5-0.8,2.2-2.5,2.1c-6.2-0.1-12.3-0.1-18.4,0c-1.4,0-2-0.4-2.3-1.8c-2.6-14.5-5.2-29-7.8-43.5c-0.3-1.4,0.3-1.7,1.5-1.7
	c3.7,0,7.5,0.1,11.2,0c1.5,0,2,0.5,2.2,1.9c0.8,5.8,1.6,11.7,2.4,17.5c0.7,5.2,1.4,10.3,2.2,15.5c0.1,0.5,0.2,0.9,0.6,1.5
	c0.1-0.5,0.3-0.9,0.4-1.4c2.3-11,4.7-22.1,7-33.2c0.3-1.2,0.7-1.8,2-1.7c4.9,0.1,9.8,0.1,14.7,0c1.3,0,1.8,0.5,2,1.7
	c2.3,11.1,4.6,22.1,7,33.2c0.1,0.5,0.2,0.9,0.4,1.3L567.5-86.1L567.5-86.1z"/>
<path class="st3" d="M776.7-114.1c0.2-0.3,0.3-0.6,0.5-1c1.7-4.5,4.9-7.2,9.7-7.8c2.6-0.3,5.3-0.4,7.9,0c7,1.1,11,5.6,11.1,12.7
	c0.1,11.1,0,22.2,0.1,33.3c0,1.1-0.4,1.6-1.6,1.6c-4,0-8-0.1-12,0c-1.5,0-2-0.5-2-1.9c0.1-8.9,0-17.8,0-26.7c0-0.8,0-1.6-0.1-2.3
	c-0.7-4.1-2.4-5.1-6.5-4.9c-4.9,0.2-7.1,2.6-7.2,7.6c-0.1,8.7-0.2,17.4-0.3,26.1c0,2.2,0,2.2-2.2,2.2c-3.8,0-7.7,0-11.5,0
	c-1.3,0-1.7-0.4-1.7-1.7c0-21.1,0-42.2,0-63.4c0-1.3,0.5-1.7,1.7-1.7c3.9,0.1,7.9,0.1,11.8,0c1.5,0,2,0.5,1.9,1.9
	c-0.1,8.1,0,16.2,0,24.3v1.7L776.7-114.1L776.7-114.1z"/>
<path class="st3" d="M83.7-259.8c-0.6,1.1-1.2,2.2-1.8,3.3c-10,18.1-16.4,37.4-19.3,57.8c-1.4,9.7-1.8,19.5-1.1,29.3
	c0.6,8.8,2.2,17.5,3.2,26.3c0.7,6.2,1.2,12.4,1.6,18.6c0.3,3.9,0.4,7.7,0.3,11.6C66.1-95.1,62.7-78,54.7-62
	c-1.1,2.1-1.1,2.3-3.3,1.7c-3.9-1-7.6-2.2-11.5-3.2c-1.4-0.4-1.5-1-0.8-2.2c4.4-6.8,7.8-14.1,10.3-21.8c2.5-7.9,4.1-16,4.5-24.3
	c0.3-4.7,0.6-9.3,0.5-14c-0.2-7.3-0.7-14.6-1-21.9c-0.2-4.2-0.5-8.3-0.6-12.5c-0.1-4.2-0.1-8.4,0-12.6c0.3-12.2,2.3-24.2,5.6-36
	c2.7-9.6,6.4-18.9,10.9-27.8c4-7.9,8.5-15.4,13.6-22.6c0.2-0.2,0.3-0.4,0.5-0.6L83.7-259.8z"/>
<path class="st3" d="M301.7-99c-0.2,5.2-0.5,10.2-2.2,15.1c-1.3,3.7-3.8,6.1-7.5,7.1c-2.7,0.7-5.5,1.4-8.2,1.6
	c-5.8,0.3-11.7,0.5-17.4-1c-5.6-1.4-9-4.8-10.3-10.3c-1.3-5.8-1.7-11.6-1.1-17.4c0.3-2.9,0.7-5.9,1.3-8.7c1.1-4.9,4.2-8,9.1-9.2
	c8.3-2,16.6-1.9,24.9-0.2c6.2,1.2,9.3,5.3,10.3,11.2C301.1-106.9,301.3-102.9,301.7-99L301.7-99z M286.1-98.2
	c-0.2-2.5-0.3-4.5-0.5-6.5c-0.5-4.4-1.8-5.8-6.2-6.4c-0.3,0-0.6-0.1-0.9-0.1c-4.7,0-6.8,1.2-7.5,4.3c-1.2,5.4-1.1,10.8-0.1,16.2
	c0.3,1.7,1.4,2.8,3.1,3.2c2.7,0.7,5.4,0.7,8,0c1.8-0.5,3-1.7,3.3-3.6C285.7-93.6,285.9-96.1,286.1-98.2L286.1-98.2z"/>
<path class="st3" d="M366.9-99c-0.2,5.2-0.5,10.3-2.3,15.3c-1.3,3.6-3.7,5.9-7.3,6.9c-2.7,0.8-5.5,1.4-8.4,1.6
	c-5.8,0.4-11.7,0.5-17.4-1c-5.6-1.4-9-4.7-10.3-10.3c-1.4-5.8-1.7-11.7-1.1-17.5c0.3-2.8,0.7-5.7,1.3-8.4c1.1-4.9,4.1-8.2,9.1-9.4
	c8.3-2,16.6-1.9,24.9-0.3c6.2,1.2,9.4,5.3,10.3,11.2C366.3-106.9,366.5-102.9,366.9-99L366.9-99z M351.4-98.2
	c-0.2-2.5-0.3-4.5-0.5-6.5c-0.5-4.4-1.9-5.7-6.2-6.3c-0.3-0.1-0.7-0.1-1-0.2c-4.1-0.4-6.8,1.3-7.5,4.9c-1,5.1-0.9,10.2,0,15.4
	c0.3,1.9,1.5,3.1,3.3,3.5c2.6,0.6,5.2,0.6,7.7,0c1.9-0.5,3.1-1.7,3.4-3.7C350.9-93.6,351.1-96.2,351.4-98.2z"/>
<path class="st3" d="M402.5-114.1c0.2-0.4,0.4-0.9,0.6-1.3c1.6-4.1,4.6-6.7,8.9-7.3c2.8-0.5,5.7-0.6,8.5-0.2c7,1,11,5.6,11.1,12.7
	c0.1,11.1,0,22.2,0.1,33.3c0,1.1-0.4,1.6-1.6,1.6c-4,0-8-0.1-12,0c-1.5,0-2-0.5-2-1.9c0.1-8.9,0-17.8,0-26.7c0-0.8,0-1.6-0.1-2.3
	c-0.7-4.1-2.4-5.1-6.5-4.9c-4.9,0.2-7.1,2.6-7.2,7.6c-0.1,8.7-0.2,17.4-0.3,26.1c0,2.2,0,2.2-2.2,2.2c-3.8,0-7.7,0-11.5,0
	c-1.3,0-1.7-0.4-1.7-1.7c0-14.5,0-29.1,0-43.6c0-1.2,0.4-1.7,1.6-1.7c4,0.1,8.1,0.1,12.1,0c1.3,0,1.8,0.4,1.7,1.7
	c-0.1,2.1,0,4.3,0,6.4L402.5-114.1L402.5-114.1z"/>
<path class="st3" d="M459.7-89.8c2.1,0,4.1,0,6.2,0c1,0,1.6,0.2,1.6,1.4c0.1,1.9,1.3,3.1,3.1,3.2c3.1,0.2,6.2,0.2,9.2-0.1
	c1.9-0.1,2.6-1.2,2.7-3.1c0.1-2.5-0.5-3.9-2.3-4.3c-2-0.5-4.1-0.5-6.1-0.7c-4-0.4-8.2-0.5-12.1-1.3c-7.8-1.7-10.6-7.2-10-14.8
	c0.2-3.1,1-6,3.1-8.4c2.2-2.6,5.3-3.7,8.5-4.2c7.5-1.1,15-1.3,22.4,0.2c1.3,0.2,2.6,0.7,3.8,1.3c4.9,2.1,5.8,6.6,5.7,10.7
	c0,0.4-0.7,1-1.1,1c-4.2,0.1-8.4,0.1-12.5,0c-0.4,0-1-0.7-1.2-1.2c-0.5-1.7-1.7-2.5-3.4-2.6c-2.3-0.1-4.6-0.1-6.9,0.1
	c-2.3,0.2-3.3,1.3-3.5,3.4c-0.1,2.3,0.7,3.6,3,4c2,0.4,4,0.5,6,0.6c3.8,0.3,7.7,0.3,11.4,1c6.8,1.1,10.2,5.4,10.3,12.3
	c0,1.8-0.1,3.6-0.4,5.4c-0.9,5.8-4,9-9.9,10.2c-6.6,1.4-13.2,1.1-19.8,0.7c-2.1-0.1-4.2-0.4-6.3-0.8c-5.3-1.1-8.3-4.4-9.1-9.7
	c-0.7-4.8-0.7-4,3.5-4.1C457-89.9,458.4-89.9,459.7-89.8L459.7-89.8z"/>
<path class="st3" d="M733.6-105.1c-2.1,0-4.2,0.1-6.3,0c-0.5,0-1.2-0.5-1.3-0.9c-1.1-4.4-2.7-5.6-7.3-5.2c-0.7,0.1-1.4,0.2-2,0.3
	c-2,0.4-3.5,1.5-3.8,3.6c-0.4,3-0.6,5.9-0.7,8.9c-0.1,2,0,4,0.3,6c0.6,4.2,1.6,5.2,5.9,5.5c1.6,0.1,3.2-0.2,4.8-0.5
	c1.5-0.2,2.3-1.2,2.5-2.7c0.1-0.6,0.2-1.2,0.3-1.7c0.2-1.6,1.2-2.4,2.8-2.4c3.7,0,7.4,0,11.1,0c1.2,0,1.6,0.4,1.6,1.6
	c-0.1,3.7-0.6,7.2-2.2,10.6c-1.3,2.7-3.4,4.5-6.2,5.3c-2.5,0.7-5.2,1.4-7.8,1.5c-6.7,0.4-13.5,0.8-19.9-1.8c-3-1.2-5.1-3.3-6.3-6.2
	c-1.7-3.8-2.1-7.7-2.4-11.8c-0.3-5.9-0.1-11.8,1.6-17.5c1.3-4.3,4.1-7.3,8.4-8.7c3.1-1,6.3-1.7,9.5-1.8c4.5-0.1,9.2,0.1,13.6,0.8
	c9.3,1.4,11.7,8.9,11.7,16c0,0.9-0.5,1.2-1.3,1.1C737.8-105.1,735.7-105.1,733.6-105.1L733.6-105.1z"/>
<path class="st3" d="M644.1-98.2c0-3.7,0-7.4,0-11c0-1.3-0.4-1.7-1.7-1.7c-4,0-4-0.1-4-4c0-2,0-3.9,0-5.9c0-1,0.4-1.5,1.4-1.4
	c0.7,0,1.5-0.1,2.2,0c1.5,0.2,2.1-0.4,2-2c-0.1-2,0-4-0.1-6c0-1.2,0.3-1.8,1.7-1.8c4,0.1,8.1,0.1,12.1,0c1.3,0,1.7,0.5,1.7,1.7
	c-0.1,2.1,0,4.2,0,6.3c-0.1,1.3,0.4,1.7,1.7,1.7c4.7-0.1,9.3,0,14,0c1.9,0,2,0.1,2,2c0,2.4,0,4.9,0,7.4c0,1.9-0.1,2-2,2
	c-4.6,0-9.2,0.1-13.7,0c-1.4,0-2,0.3-2,1.9c0.1,6,0,12,0,18c0,0.6,0,1.2,0.1,1.8c0.3,2.2,1,2.9,3,3c1.8,0.1,3.2-0.8,3.6-2.6
	c0.3-1.3,0.5-2.7,0.5-4.1c0.1-1,0.3-1.5,1.5-1.5c3.2,0,6.4,0,9.6,0c0.9,0,1.5,0.2,1.4,1.2c-0.2,3.2-0.2,6.4-0.7,9.5
	c-0.8,4.6-3.8,7.3-8.4,8.2c-5.7,1-11.4,1.1-17-0.1c-5.9-1.2-8.9-5.2-9.1-11.6C644-90.9,644.1-94.6,644.1-98.2z"/>
<path class="st3" d="M604.5-98.9c0-7.1,0-14.2,0-21.4c0-1.5,0.5-2,1.9-2c3.9,0.1,7.9,0.1,11.8,0c1.3,0,1.7,0.4,1.7,1.7
	c0,14.5,0,29.1,0,43.6c0,1.3-0.6,1.7-1.8,1.7c-3.9-0.1-7.9-0.1-11.8,0c-1.4,0-1.9-0.5-1.9-1.9C604.5-84.4,604.5-91.7,604.5-98.9
	L604.5-98.9z"/>
<path class="st3" d="M612.1-130.1c-2.1,0-4.1,0-6.2,0c-1,0-1.4-0.4-1.4-1.4c0-3,0-6.1,0-9.1c0-1,0.4-1.4,1.4-1.4c4.2,0,8.4,0,12.7,0
	c1,0,1.4,0.5,1.4,1.5c0,3,0,6,0,9c0,1.1-0.4,1.5-1.5,1.5C616.3-130.1,614.2-130.1,612.1-130.1L612.1-130.1z"/>
<path class="st4" d="M192.7,171.5c0.2-0.4,0.4-0.9,0.5-1.3c3.7-12.7,7.4-25.5,11-38.2c0.4-1.4,1-1.9,2.5-1.8c8.4,0.1,16.7,0,25.1,0
	c1.9,0,2,0.1,2,2c0,20.9,0,41.9,0,62.8c0,1.4-0.4,2-1.9,2c-4.7-0.1-9.4-0.1-14.2,0c-1.4,0-1.8-0.5-1.8-1.8
	c0.3-8.1,0.6-16.2,0.9-24.3c0.1-2.9,0.2-5.8,0.3-8.7c0.1-5,0.2-9.9,0.4-14.9c0-0.4-0.1-0.7-0.5-1.1c-0.2,0.4-0.3,0.7-0.5,1.1
	c-5.2,15.9-10.4,31.8-15.5,47.7c-0.5,1.5-1.2,2-2.8,2c-4-0.1-8-0.1-12,0c-1.1,0-1.6-0.4-1.9-1.4c-5-15.5-10.1-30.9-15.1-46.4
	c-0.4-1.1-0.7-2.2-1.1-3.3l-0.6,0.1c0,1.2,0,2.4,0,3.6c0.2,3.6,0.4,7.3,0.5,10.9c0.2,7.6,0.4,15.2,0.7,22.8
	c0.1,3.9,0.4,7.7,0.5,11.6c0.1,1.9-0.1,2-1.9,2c-4.8,0-9.5,0-14.3,0c-1.4,0-1.8-0.5-1.8-1.8c0-21.1,0-42.2,0-63.2
	c0-1.2,0.4-1.8,1.7-1.8c8.4,0,16.7,0.1,25.1,0c1.3,0,1.8,0.6,2.1,1.7c3.8,12.7,7.7,25.4,11.6,38.1c0.2,0.5,0.4,1.1,0.6,1.6H192.7
	L192.7,171.5z"/>
<path class="st4" d="M83.2,37.2c-1.2,4.4-2.6,8.9-3.7,13.3c-2.4,9.6-3.8,19.2-4.4,29.1c-0.8,14.6,0.9,29,4.2,43.3
	c2.7,11.8,5.9,23.6,8.4,35.4c1.3,6.2,1.6,12.5,2.4,18.8c0,0.3,0.1,0.6,0.2,1.2c0.5-0.7,0.9-1.1,1.2-1.6c7.6-13,6.5-29-3-40.7
	c-1.4-1.7-2.3-3.5-2.8-5.7c-1.2-6.6-2.6-13.1-3.9-19.6c-0.1-0.6-0.1-1.1-0.2-2.1c8.5,3.7,15.4,8.9,21,15.8
	c8.3,10.4,12.6,22.2,12.2,35.5c-1,33.1-29.1,51.9-49.9,52.5c0.1-0.5,0.2-0.9,0.4-1.2c4.6-10.4,7.2-21.3,8-32.6
	c0.7-9.9,0.3-19.7-0.6-29.5c-1-11-2.3-22.1-3-33.1c-0.5-8.3-0.8-16.7-0.5-25c0.7-18.3,5.1-35.7,13.2-52.2c0.2-0.5,0.5-1,0.8-1.5
	L83.2,37.2L83.2,37.2z"/>
<path class="st4" d="M34.9,111c0,0.7,0.1,1.4,0,2c-0.4,5-0.9,10.1-1.4,15.1c-0.2,1.8-0.1,3.5-0.4,5.3c-0.1,1-0.5,2-1.1,2.8
	c-5.8,7.5-8.3,16-7.6,25.4c0.4,5.5,2.1,10.6,4.9,15.3c0.2,0.4,0.5,0.7,1.1,1.3c0.8-2.1,1.6-3.9,2.2-5.7c2.6-8.3,3.9-16.9,4.6-25.6
	c0.6-8.3,1.1-16.5,1.8-24.8c1.5-19.4,5-38.4,11.6-56.7c1.5-4.1,3.1-8.1,4.7-12.1c0.1-0.3,0.3-0.5,0.6-0.7c-0.6,1.9-1.2,3.9-1.8,5.8
	c-3.1,10-5.1,20.3-6.3,30.7c-0.5,4.9-0.8,9.8-1,14.7c-0.2,5.3-0.3,10.6-0.3,15.9c0.1,10.9,0.7,21.8,0.5,32.7
	c-0.3,17.9-5.2,34.4-16.1,48.9c-1.3,1.7-1.3,1.8-3.1,0.4C16,192.4,8.8,180.2,6.8,165.3c-2-15.4,2.1-29.2,11.9-41.3
	c4.3-5.2,9.5-9.4,15.3-12.7C34.3,111.2,34.5,111.1,34.9,111z"/>
<path class="st4" d="M567.5,186.1c0.4-2.9,0.9-5.8,1.3-8.7c1.3-8.7,2.6-17.5,3.9-26.2c0.1-0.9,0.5-1.3,1.4-1.3c4,0,8.1,0,12.1,0
	c1.3,0,1.2,0.7,1,1.6c-1,5.8-2,11.5-3,17.3c-1.5,8.9-3.1,17.7-4.6,26.6c-0.2,1.2-0.7,1.6-1.9,1.6c-6.3-0.1-12.6-0.1-18.9,0
	c-1.2,0-1.7-0.4-1.9-1.6c-1.9-9.9-3.9-19.9-5.8-29.8c-0.1-0.6-0.3-1.2-0.7-1.8c-0.3,1.4-0.6,2.7-0.9,4.1c-1.7,9-3.4,18-5.1,27.1
	c-0.3,1.5-0.8,2.2-2.5,2.1c-6.2-0.1-12.3-0.1-18.4,0c-1.4,0-2-0.4-2.3-1.8c-2.6-14.5-5.2-29-7.8-43.5c-0.3-1.4,0.3-1.7,1.5-1.7
	c3.7,0,7.5,0.1,11.2,0c1.5,0,2,0.5,2.2,1.9c0.8,5.8,1.6,11.7,2.4,17.5c0.7,5.2,1.4,10.3,2.2,15.5c0.1,0.5,0.2,0.9,0.6,1.5
	c0.1-0.5,0.3-0.9,0.4-1.4c2.3-11,4.7-22.1,7-33.2c0.3-1.2,0.7-1.8,2-1.7c4.9,0.1,9.8,0.1,14.7,0c1.3,0,1.8,0.5,2,1.7
	c2.3,11.1,4.6,22.1,7,33.2c0.1,0.5,0.2,0.9,0.4,1.3L567.5,186.1L567.5,186.1z"/>
<path class="st4" d="M776.7,158.1c0.2-0.3,0.3-0.6,0.5-1c1.7-4.5,4.9-7.2,9.7-7.8c2.6-0.3,5.3-0.4,7.9,0c7,1.1,11,5.6,11.1,12.7
	c0.1,11.1,0,22.2,0.1,33.3c0,1.1-0.4,1.6-1.6,1.6c-4,0-8-0.1-12,0c-1.5,0-2-0.5-2-1.9c0.1-8.9,0-17.8,0-26.7c0-0.8,0-1.6-0.1-2.3
	c-0.7-4.1-2.4-5.1-6.5-4.9c-4.9,0.2-7.1,2.6-7.2,7.6c-0.1,8.7-0.2,17.4-0.3,26.1c0,2.2,0,2.2-2.2,2.2c-3.8,0-7.7,0-11.5,0
	c-1.3,0-1.7-0.4-1.7-1.7c0-21.1,0-42.2,0-63.4c0-1.3,0.5-1.7,1.7-1.7c3.9,0.1,7.9,0.1,11.8,0c1.5,0,2,0.5,1.9,1.9
	c-0.1,8.1,0,16.2,0,24.3v1.7L776.7,158.1L776.7,158.1z"/>
<path class="st4" d="M83.7,12.4c-0.6,1.1-1.2,2.2-1.8,3.3c-10,18.1-16.4,37.4-19.3,57.8c-1.4,9.7-1.8,19.5-1.1,29.3
	c0.6,8.8,2.2,17.5,3.2,26.3c0.7,6.2,1.2,12.4,1.6,18.6c0.3,3.9,0.4,7.7,0.3,11.6c-0.5,17.7-3.9,34.8-11.9,50.8
	c-1.1,2.1-1.1,2.3-3.3,1.7c-3.9-1-7.6-2.2-11.5-3.2c-1.4-0.4-1.5-1-0.8-2.2c4.4-6.8,7.8-14.1,10.3-21.8c2.5-7.9,4.1-16,4.5-24.3
	c0.3-4.7,0.6-9.3,0.5-14c-0.2-7.3-0.7-14.6-1-21.9c-0.2-4.2-0.5-8.3-0.6-12.5c-0.1-4.2-0.1-8.4,0-12.6c0.3-12.2,2.3-24.2,5.6-36
	c2.7-9.6,6.4-18.9,10.9-27.8c4-7.9,8.5-15.4,13.6-22.6c0.2-0.2,0.3-0.4,0.5-0.6L83.7,12.4z"/>
<path class="st4" d="M301.7,173.2c-0.2,5.2-0.5,10.2-2.2,15.1c-1.3,3.7-3.8,6.1-7.5,7.1c-2.7,0.7-5.5,1.4-8.2,1.6
	c-5.8,0.3-11.7,0.5-17.4-1c-5.6-1.4-9-4.8-10.3-10.3c-1.3-5.8-1.7-11.6-1.1-17.4c0.3-2.9,0.7-5.9,1.3-8.7c1.1-4.9,4.2-8,9.1-9.2
	c8.3-2,16.6-1.9,24.9-0.2c6.2,1.2,9.3,5.3,10.3,11.2C301.1,165.3,301.3,169.2,301.7,173.2L301.7,173.2z M286.1,174
	c-0.2-2.5-0.3-4.5-0.5-6.5c-0.5-4.4-1.8-5.8-6.2-6.4c-0.3,0-0.6-0.1-0.9-0.1c-4.7,0-6.8,1.2-7.5,4.3c-1.2,5.4-1.1,10.8-0.1,16.2
	c0.3,1.7,1.4,2.8,3.1,3.2c2.7,0.7,5.4,0.7,8,0c1.8-0.5,3-1.7,3.3-3.6C285.7,178.6,285.9,176.1,286.1,174L286.1,174z"/>
<path class="st4" d="M366.9,173.2c-0.2,5.2-0.5,10.3-2.3,15.3c-1.3,3.6-3.7,5.9-7.3,6.9c-2.7,0.8-5.5,1.4-8.4,1.6
	c-5.8,0.4-11.7,0.5-17.4-1c-5.6-1.4-9-4.7-10.3-10.3c-1.4-5.8-1.7-11.7-1.1-17.5c0.3-2.8,0.7-5.7,1.3-8.4c1.1-4.9,4.1-8.2,9.1-9.4
	c8.3-2,16.6-1.9,24.9-0.3c6.2,1.2,9.4,5.3,10.3,11.2C366.3,165.3,366.5,169.2,366.9,173.2L366.9,173.2z M351.4,174
	c-0.2-2.5-0.3-4.5-0.5-6.5c-0.5-4.4-1.9-5.7-6.2-6.3c-0.3-0.1-0.7-0.1-1-0.2c-4.1-0.4-6.8,1.3-7.5,4.9c-1,5.1-0.9,10.2,0,15.4
	c0.3,1.9,1.5,3.1,3.3,3.5c2.6,0.6,5.2,0.6,7.7,0c1.9-0.5,3.1-1.7,3.4-3.7C350.9,178.6,351.1,176,351.4,174z"/>
<path class="st4" d="M402.5,158.1c0.2-0.4,0.4-0.9,0.6-1.3c1.6-4.1,4.6-6.7,8.9-7.3c2.8-0.5,5.7-0.6,8.5-0.2c7,1,11,5.6,11.1,12.7
	c0.1,11.1,0,22.2,0.1,33.3c0,1.1-0.4,1.6-1.6,1.6c-4,0-8-0.1-12,0c-1.5,0-2-0.5-2-1.9c0.1-8.9,0-17.8,0-26.7c0-0.8,0-1.6-0.1-2.3
	c-0.7-4.1-2.4-5.1-6.5-4.9c-4.9,0.2-7.1,2.6-7.2,7.6c-0.1,8.7-0.2,17.4-0.3,26.1c0,2.2,0,2.2-2.2,2.2c-3.8,0-7.7,0-11.5,0
	c-1.3,0-1.7-0.4-1.7-1.7c0-14.5,0-29.1,0-43.6c0-1.2,0.4-1.7,1.6-1.7c4,0.1,8.1,0.1,12.1,0c1.3,0,1.8,0.4,1.7,1.7
	c-0.1,2.1,0,4.3,0,6.4L402.5,158.1L402.5,158.1z"/>
<path class="st4" d="M459.7,182.3c2.1,0,4.1,0,6.2,0c1,0,1.6,0.2,1.6,1.4c0.1,1.9,1.3,3.1,3.1,3.2c3.1,0.2,6.2,0.2,9.2-0.1
	c1.9-0.1,2.6-1.2,2.7-3.1c0.1-2.5-0.5-3.9-2.3-4.3c-2-0.5-4.1-0.5-6.1-0.7c-4-0.4-8.2-0.5-12.1-1.3c-7.8-1.7-10.6-7.2-10-14.8
	c0.2-3.1,1-6,3.1-8.4c2.2-2.6,5.3-3.7,8.5-4.2c7.5-1.1,15-1.3,22.4,0.2c1.3,0.2,2.6,0.7,3.8,1.3c4.9,2.1,5.8,6.6,5.7,10.7
	c0,0.4-0.7,1-1.1,1c-4.2,0.1-8.4,0.1-12.5,0c-0.4,0-1-0.7-1.2-1.2c-0.5-1.7-1.7-2.5-3.4-2.6c-2.3-0.1-4.6-0.1-6.9,0.1
	c-2.3,0.2-3.3,1.3-3.5,3.4c-0.1,2.3,0.7,3.6,3,4c2,0.4,4,0.5,6,0.6c3.8,0.3,7.7,0.3,11.4,1c6.8,1.1,10.2,5.4,10.3,12.3
	c0,1.8-0.1,3.6-0.4,5.4c-0.9,5.8-4,9-9.9,10.2c-6.6,1.4-13.2,1.1-19.8,0.7c-2.1-0.1-4.2-0.4-6.3-0.8c-5.3-1.1-8.3-4.4-9.1-9.7
	c-0.7-4.8-0.7-4,3.5-4.1C457,182.3,458.4,182.3,459.7,182.3L459.7,182.3z"/>
<path class="st4" d="M733.6,167.1c-2.1,0-4.2,0.1-6.3,0c-0.5,0-1.2-0.5-1.3-0.9c-1.1-4.4-2.7-5.6-7.3-5.2c-0.7,0.1-1.4,0.2-2,0.3
	c-2,0.4-3.5,1.5-3.8,3.6c-0.4,3-0.6,5.9-0.7,8.9c-0.1,2,0,4,0.3,6c0.6,4.2,1.6,5.2,5.9,5.5c1.6,0.1,3.2-0.2,4.8-0.5
	c1.5-0.2,2.3-1.2,2.5-2.7c0.1-0.6,0.2-1.2,0.3-1.7c0.2-1.6,1.2-2.4,2.8-2.4c3.7,0,7.4,0,11.1,0c1.2,0,1.6,0.4,1.6,1.6
	c-0.1,3.7-0.6,7.2-2.2,10.6c-1.3,2.7-3.4,4.5-6.2,5.3c-2.5,0.7-5.2,1.4-7.8,1.5c-6.7,0.4-13.5,0.8-19.9-1.8c-3-1.2-5.1-3.3-6.3-6.2
	c-1.7-3.8-2.1-7.7-2.4-11.8c-0.3-5.9-0.1-11.8,1.6-17.5c1.3-4.3,4.1-7.3,8.4-8.7c3.1-1,6.3-1.7,9.5-1.8c4.5-0.1,9.2,0.1,13.6,0.8
	c9.3,1.4,11.7,8.9,11.7,16c0,0.9-0.5,1.2-1.3,1.1C737.8,167.1,735.7,167.1,733.6,167.1L733.6,167.1z"/>
<path class="st4" d="M644.1,174c0-3.7,0-7.4,0-11c0-1.3-0.4-1.7-1.7-1.7c-4,0-4-0.1-4-4c0-2,0-3.9,0-5.9c0-1,0.4-1.5,1.4-1.4
	c0.7,0,1.5-0.1,2.2,0c1.5,0.2,2.1-0.4,2-2c-0.1-2,0-4-0.1-6c0-1.2,0.3-1.8,1.7-1.8c4,0.1,8.1,0.1,12.1,0c1.3,0,1.7,0.5,1.7,1.7
	c-0.1,2.1,0,4.2,0,6.3c-0.1,1.3,0.4,1.7,1.7,1.7c4.7-0.1,9.3,0,14,0c1.9,0,2,0.1,2,2c0,2.4,0,4.9,0,7.4c0,1.9-0.1,2-2,2
	c-4.6,0-9.2,0.1-13.7,0c-1.4,0-2,0.3-2,1.9c0.1,6,0,12,0,18c0,0.6,0,1.2,0.1,1.8c0.3,2.2,1,2.9,3,3c1.8,0.1,3.2-0.8,3.6-2.6
	c0.3-1.3,0.5-2.7,0.5-4.1c0.1-1,0.3-1.5,1.5-1.5c3.2,0,6.4,0,9.6,0c0.9,0,1.5,0.2,1.4,1.2c-0.2,3.2-0.2,6.4-0.7,9.5
	c-0.8,4.6-3.8,7.3-8.4,8.2c-5.7,1-11.4,1.1-17-0.1c-5.9-1.2-8.9-5.2-9.1-11.6C644,181.3,644.1,177.6,644.1,174z"/>
<path class="st4" d="M604.5,173.3c0-7.1,0-14.2,0-21.4c0-1.5,0.5-2,1.9-2c3.9,0.1,7.9,0.1,11.8,0c1.3,0,1.7,0.4,1.7,1.7
	c0,14.5,0,29.1,0,43.6c0,1.3-0.6,1.7-1.8,1.7c-3.9-0.1-7.9-0.1-11.8,0c-1.4,0-1.9-0.5-1.9-1.9C604.5,187.8,604.5,180.5,604.5,173.3
	L604.5,173.3z"/>
<path class="st4" d="M612.1,142.1c-2.1,0-4.1,0-6.2,0c-1,0-1.4-0.4-1.4-1.4c0-3,0-6.1,0-9.1c0-1,0.4-1.4,1.4-1.4c4.2,0,8.4,0,12.7,0
	c1,0,1.4,0.5,1.4,1.5c0,3,0,6,0,9c0,1.1-0.4,1.5-1.5,1.5C616.3,142,614.2,142.1,612.1,142.1L612.1,142.1z"/>
</svg>
