<?xml version="1.0" encoding="UTF-8"?>
<svg id="Layer_1" data-name="Layer 1" xmlns="http://www.w3.org/2000/svg" viewBox="0 0 812.25 219.1">
  <defs>
    <style>
      .cls-1 {
        fill: #6aaacd;
      }

      .cls-2 {
        fill: #325362;
      }

      .cls-3 {
        fill: #3a728b;
      }
    </style>
  </defs>
  <path class="cls-1" d="m194.25,172.08c.17-.43.37-.85.49-1.3,3.68-12.73,7.38-25.48,11.03-38.23.4-1.37,1.04-1.86,2.48-1.84,8.35.07,16.73.04,25.08.04,1.93,0,1.98.05,1.98,2,0,20.93,0,41.87.02,62.8,0,1.44-.37,2.02-1.91,1.98-4.73-.09-9.45-.07-14.16,0-1.36,0-1.82-.45-1.77-1.79.31-8.1.59-16.19.87-24.29.1-2.9.23-5.79.3-8.69.14-4.95.24-9.92.36-14.87,0-.36-.09-.73-.45-1.15-.16.36-.33.73-.45,1.11-5.16,15.89-10.35,31.77-15.46,47.67-.5,1.55-1.23,2.05-2.83,2.02-3.98-.1-7.97-.07-11.95-.02-1.06,0-1.6-.37-1.93-1.37-5.02-15.46-10.08-30.92-15.11-46.4-.36-1.09-.71-2.21-1.08-3.3l-.56.05c0,1.22-.04,2.43,0,3.63.16,3.63.38,7.26.5,10.87.24,7.61.42,15.22.66,22.83.12,3.87.36,7.75.52,11.62.07,1.89-.07,2.03-1.95,2.03-4.78,0-9.54-.04-14.32.02-1.37.02-1.79-.5-1.79-1.81.02-21.07.02-42.16,0-63.23,0-1.23.38-1.76,1.68-1.76,8.36.04,16.73.05,25.09,0,1.34,0,1.79.61,2.12,1.72,3.84,12.7,7.71,25.38,11.57,38.08.16.54.36,1.06.56,1.58h.4Z"/>
  <path class="cls-2" d="m84.76,37.76c-1.23,4.45-2.57,8.86-3.68,13.32-2.36,9.55-3.82,19.25-4.38,29.08-.82,14.64.9,29.03,4.15,43.26,2.71,11.83,5.85,23.56,8.36,35.42,1.3,6.17,1.61,12.54,2.36,18.81.04.28.09.56.19,1.25.52-.73.89-1.15,1.16-1.61,7.63-12.96,6.48-29.05-3.01-40.72-1.41-1.74-2.35-3.51-2.76-5.72-1.23-6.57-2.61-13.1-3.89-19.65-.1-.56-.1-1.13-.19-2.08,8.48,3.68,15.39,8.88,20.95,15.79,8.32,10.35,12.56,22.22,12.18,35.49-.97,33.15-29.1,51.85-49.94,52.46.14-.45.21-.87.38-1.23,4.64-10.39,7.21-21.26,8.04-32.59.73-9.87.31-19.72-.59-29.55-1.03-11.05-2.26-22.08-2.99-33.13-.54-8.32-.83-16.69-.5-25.03.71-18.27,5.09-35.73,13.15-52.22.24-.52.52-1.01.78-1.53l.24.14-.02.04Z"/>
  <path class="cls-3" d="m36.47,111.57c0,.75.05,1.36,0,1.96-.43,5.04-.92,10.06-1.35,15.1-.16,1.76-.12,3.54-.38,5.28-.14.97-.5,2.05-1.1,2.81-5.84,7.49-8.29,15.98-7.64,25.36.38,5.47,2.14,10.56,4.92,15.31.21.36.52.66,1.06,1.34.8-2.12,1.58-3.89,2.15-5.73,2.64-8.34,3.94-16.9,4.55-25.61.57-8.27,1.13-16.54,1.77-24.81,1.53-19.37,4.95-38.37,11.64-56.68,1.48-4.07,3.14-8.06,4.73-12.07.1-.26.28-.5.62-.66-.61,1.95-1.22,3.89-1.81,5.84-3.08,10.04-5.14,20.29-6.27,30.7-.54,4.86-.76,9.78-.96,14.68-.21,5.3-.33,10.6-.28,15.89.1,10.89.66,21.8.49,32.69-.29,17.88-5.21,34.38-16.07,48.87-1.29,1.72-1.34,1.77-3.09.4-11.94-9.29-19.14-21.44-21.09-36.39-2.01-15.37,2.12-29.2,11.94-41.26,4.27-5.23,9.49-9.38,15.34-12.72.19-.12.43-.16.83-.3Z"/>
  <path class="cls-1" d="m569.01,186.67c.43-2.88.87-5.77,1.28-8.65,1.29-8.74,2.59-17.48,3.86-26.23.12-.89.52-1.3,1.44-1.3,4.03,0,8.06.02,12.09,0,1.25,0,1.16.71,1.01,1.56-1.01,5.75-1.98,11.52-2.99,17.27-1.55,8.86-3.11,17.7-4.6,26.56-.21,1.23-.69,1.63-1.91,1.62-6.29-.05-12.59-.05-18.88,0-1.22,0-1.7-.4-1.93-1.62-1.89-9.94-3.86-19.86-5.8-29.79-.12-.61-.26-1.22-.71-1.84-.28,1.35-.59,2.71-.85,4.06-1.72,9.02-3.44,18.05-5.11,27.08-.28,1.51-.8,2.15-2.47,2.12-6.15-.1-12.3-.07-18.45,0-1.39,0-2.01-.42-2.26-1.82-2.57-14.51-5.18-29.01-7.8-43.5-.26-1.39.28-1.74,1.55-1.72,3.73.03,7.47.09,11.2-.02,1.48-.04,1.98.54,2.15,1.89.78,5.84,1.61,11.67,2.43,17.51.71,5.16,1.42,10.3,2.15,15.46.07.47.23.94.64,1.46.14-.47.31-.94.42-1.41,2.35-11.05,4.69-22.1,6.98-33.16.26-1.23.73-1.75,2.03-1.74,4.92.05,9.83.05,14.75,0,1.32,0,1.77.52,2.03,1.74,2.29,11.07,4.64,22.11,6.98,33.16.09.45.24.89.36,1.32h.36l.02-.02Z"/>
  <path class="cls-1" d="m778.27,158.7c.16-.33.35-.64.47-.97,1.67-4.52,4.9-7.24,9.66-7.8,2.6-.31,5.33-.43,7.92-.04,7.02,1.08,10.98,5.61,11.07,12.73.14,11.1.03,22.2.07,33.32,0,1.15-.42,1.56-1.56,1.56-3.98-.04-7.97-.07-11.95,0-1.48.04-1.96-.45-1.96-1.95.05-8.89.03-17.79.02-26.68,0-.78,0-1.58-.12-2.35-.7-4.12-2.4-5.11-6.5-4.93-4.88.19-7.09,2.64-7.17,7.57-.14,8.69-.19,17.39-.26,26.08-.02,2.22,0,2.22-2.21,2.22-3.84,0-7.68-.03-11.52.02-1.27.02-1.74-.42-1.74-1.7.02-21.12.02-42.25,0-63.39,0-1.27.45-1.74,1.72-1.72,3.93.05,7.87.07,11.79,0,1.48-.03,1.96.45,1.95,1.95-.05,8.11-.04,16.21-.04,24.32v1.69l.33.05.03.02Z"/>
  <path class="cls-3" d="m85.2,13.01c-.59,1.09-1.16,2.21-1.77,3.28-9.97,18.1-16.4,37.38-19.28,57.85-1.37,9.71-1.79,19.51-1.11,29.25.61,8.79,2.22,17.51,3.21,26.3.71,6.18,1.22,12.4,1.63,18.62.26,3.86.37,7.75.26,11.62-.5,17.74-3.91,34.81-11.9,50.79-1.06,2.1-1.09,2.28-3.33,1.7-3.86-.97-7.64-2.17-11.46-3.25-1.36-.38-1.55-.95-.76-2.17,4.36-6.83,7.8-14.09,10.27-21.82,2.52-7.9,4.08-15.98,4.53-24.27.26-4.66.61-9.31.5-13.97-.16-7.31-.68-14.61-1.04-21.91-.21-4.17-.52-8.32-.62-12.49-.1-4.22-.1-8.43-.02-12.65.26-12.25,2.33-24.23,5.65-35.99,2.73-9.62,6.43-18.88,10.91-27.81,3.96-7.87,8.55-15.37,13.58-22.6.16-.23.35-.44.52-.64l.24.14Z"/>
  <path class="cls-1" d="m303.24,173.78c-.21,5.16-.54,10.23-2.24,15.15-1.29,3.68-3.8,6.1-7.49,7.1-2.68.75-5.45,1.39-8.22,1.56-5.84.35-11.69.45-17.44-.99-5.56-1.39-8.98-4.76-10.28-10.34-1.34-5.75-1.67-11.55-1.11-17.41.28-2.92.68-5.85,1.32-8.72,1.11-4.88,4.15-8.03,9.1-9.21,8.27-1.96,16.55-1.86,24.86-.24,6.18,1.22,9.35,5.3,10.27,11.24.61,3.91.85,7.89,1.25,11.83l-.02.02Zm-15.58.82c-.19-2.5-.28-4.52-.49-6.51-.47-4.41-1.84-5.79-6.24-6.39-.29-.04-.59-.14-.87-.14-4.69.04-6.77,1.22-7.45,4.26-1.18,5.39-1.08,10.8-.1,16.21.31,1.7,1.39,2.8,3.06,3.25,2.66.71,5.35.73,8.01,0,1.82-.49,3.02-1.69,3.28-3.58.36-2.52.59-5.05.82-7.1l-.02.02Z"/>
  <path class="cls-1" d="m368.47,173.75c-.21,5.21-.54,10.34-2.29,15.29-1.27,3.56-3.7,5.94-7.28,6.95-2.73.78-5.54,1.44-8.36,1.62-5.84.36-11.67.45-17.44-.97-5.56-1.39-9-4.72-10.32-10.32-1.36-5.8-1.68-11.66-1.11-17.54.28-2.83.66-5.66,1.27-8.43,1.09-4.93,4.1-8.16,9.12-9.36,8.27-1.98,16.55-1.88,24.86-.26,6.18,1.2,9.36,5.28,10.3,11.22.61,3.91.85,7.89,1.27,11.83l-.02-.02Zm-15.58.78c-.19-2.5-.28-4.52-.5-6.51-.49-4.36-1.88-5.73-6.15-6.32-.35-.05-.68-.12-1.02-.16-4.12-.36-6.81,1.29-7.54,4.92-1.01,5.09-.9,10.23-.02,15.36.33,1.89,1.46,3.08,3.32,3.54,2.57.62,5.16.64,7.73-.04,1.88-.5,3.11-1.7,3.39-3.67.35-2.52.57-5.05.8-7.12Z"/>
  <path class="cls-1" d="m404,158.7c.21-.43.43-.87.61-1.3,1.58-4.12,4.62-6.65,8.88-7.35,2.78-.45,5.72-.57,8.5-.16,7.03,1.04,10.98,5.59,11.08,12.73.14,11.1.04,22.2.07,33.32,0,1.15-.42,1.56-1.56,1.56-3.98-.03-7.97-.07-11.95,0-1.48.04-1.98-.45-1.96-1.93.05-8.89.04-17.79.02-26.68,0-.78,0-1.58-.12-2.35-.69-4.12-2.4-5.11-6.5-4.93-4.88.19-7.09,2.64-7.17,7.57-.14,8.69-.19,17.39-.26,26.08-.02,2.21,0,2.22-2.21,2.22-3.84,0-7.68-.04-11.52.02-1.27.02-1.74-.42-1.74-1.7.03-14.54.03-29.1,0-43.64,0-1.2.42-1.67,1.63-1.67,4.03.05,8.06.05,12.11,0,1.25,0,1.79.4,1.74,1.7-.07,2.14-.02,4.29-.02,6.43l.4.05-.02.02Z"/>
  <path class="cls-1" d="m461.27,182.92c2.07,0,4.14.04,6.2,0,.99-.02,1.58.24,1.65,1.36.14,1.89,1.29,3.09,3.09,3.18,3.07.16,6.17.17,9.22-.05,1.88-.14,2.55-1.22,2.66-3.13.14-2.54-.47-3.93-2.35-4.34-2-.45-4.08-.52-6.11-.75-4.05-.43-8.16-.49-12.13-1.34-7.83-1.7-10.61-7.16-10.01-14.83.24-3.08,1.03-6.01,3.09-8.44,2.24-2.64,5.3-3.72,8.55-4.22,7.49-1.13,14.97-1.27,22.44.17,1.29.24,2.55.71,3.77,1.25,4.9,2.14,5.77,6.64,5.66,10.7,0,.36-.7,1.01-1.09,1.01-4.19.07-8.36.07-12.54,0-.42,0-1.04-.7-1.18-1.16-.5-1.74-1.67-2.54-3.35-2.59-2.29-.07-4.6-.12-6.9.05-2.35.17-3.34,1.29-3.46,3.44-.14,2.29.7,3.56,2.97,4.01,1.96.38,3.99.47,5.99.64,3.82.33,7.68.35,11.43.97,6.83,1.13,10.23,5.37,10.27,12.28,0,1.81-.09,3.65-.36,5.42-.89,5.75-4.05,9-9.92,10.25-6.57,1.39-13.2,1.09-19.84.75-2.1-.1-4.22-.4-6.27-.83-5.26-1.09-8.32-4.39-9.07-9.73-.66-4.78-.68-4.03,3.54-4.08h3.98l.05.02Z"/>
  <path class="cls-1" d="m735.1,167.69c-2.12,0-4.24.05-6.34-.03-.47-.02-1.23-.52-1.34-.92-1.11-4.41-2.73-5.59-7.35-5.16-.68.07-1.37.16-2.05.28-2.02.38-3.54,1.48-3.82,3.56-.4,2.95-.62,5.94-.75,8.93-.07,2,.04,4.03.31,6.01.61,4.24,1.6,5.18,5.87,5.45,1.6.1,3.21-.23,4.81-.45,1.51-.21,2.28-1.23,2.52-2.69.1-.57.21-1.16.28-1.74.22-1.61,1.16-2.41,2.83-2.41,3.68,0,7.38.04,11.07,0,1.22,0,1.65.43,1.63,1.63-.09,3.67-.57,7.23-2.24,10.56-1.32,2.66-3.35,4.53-6.18,5.31-2.54.71-5.16,1.39-7.78,1.55-6.72.42-13.48.78-19.94-1.84-2.97-1.2-5.05-3.32-6.34-6.24-1.65-3.75-2.14-7.75-2.36-11.78-.31-5.91-.14-11.78,1.62-17.51,1.32-4.33,4.13-7.31,8.36-8.67,3.06-.97,6.31-1.72,9.48-1.81,4.53-.12,9.15.14,13.64.8,9.33,1.39,11.73,8.93,11.73,16.02,0,.92-.54,1.16-1.34,1.15h-6.34.03Z"/>
  <path class="cls-1" d="m645.6,174.57c0-3.68-.03-7.37.02-11.05.02-1.25-.36-1.74-1.68-1.74-3.96,0-3.96-.05-3.96-3.98,0-1.96.02-3.93,0-5.89,0-.99.38-1.46,1.41-1.41.73.04,1.48-.07,2.21,0,1.51.17,2.14-.36,2.05-1.96-.12-2.02,0-4.03-.05-6.05-.03-1.22.33-1.79,1.67-1.77,4.03.05,8.06.05,12.09,0,1.3-.02,1.74.47,1.7,1.74-.07,2.1.03,4.22-.03,6.34-.05,1.29.4,1.72,1.7,1.7,4.67-.05,9.35-.03,14.02-.02,1.93,0,2,.07,2,1.98v7.36c0,1.89-.07,1.96-2.03,1.96-4.57,0-9.16.05-13.72-.02-1.44-.02-2,.35-1.98,1.89.09,5.99.03,11.99.03,17.98,0,.59.03,1.18.14,1.76.35,2.19,1.04,2.87,2.97,2.99,1.77.1,3.16-.78,3.63-2.59.33-1.32.45-2.71.52-4.07.05-1.03.33-1.55,1.46-1.53,3.2.03,6.39.02,9.59,0,.85,0,1.49.23,1.42,1.22-.21,3.18-.21,6.39-.73,9.52-.78,4.62-3.79,7.33-8.37,8.16-5.66,1.04-11.36,1.08-17.01-.09-5.89-1.22-8.95-5.21-9.05-11.55-.05-3.63,0-7.28,0-10.91Z"/>
  <path class="cls-1" d="m606.05,173.84c0-7.12.04-14.24-.03-21.37,0-1.46.45-2,1.95-1.96,3.93.09,7.87.05,11.81,0,1.27,0,1.74.42,1.74,1.72-.03,14.54-.03,29.08,0,43.64,0,1.34-.57,1.67-1.79,1.65-3.93-.05-7.87-.07-11.81,0-1.41.02-1.89-.45-1.89-1.86.05-7.28.02-14.54.02-21.82h.02Z"/>
  <path class="cls-1" d="m613.68,142.64c-2.07,0-4.12-.02-6.18,0-.99,0-1.44-.38-1.44-1.39.02-3.04.02-6.08,0-9.12,0-.99.4-1.41,1.41-1.41,4.22.02,8.44.02,12.66,0,1.04,0,1.37.49,1.36,1.46-.02,2.99-.04,5.99,0,8.98,0,1.06-.42,1.51-1.48,1.49-2.12-.03-4.22,0-6.34,0l.02-.02Z"/>
</svg>