<?xml version="1.0" encoding="UTF-8"?>
<svg id="Layer_1" data-name="Layer 1" xmlns="http://www.w3.org/2000/svg" viewBox="0 0 225 225">
  <defs>
    <style>
      .cls-1 {
        fill: #171717;
      }
    </style>
  </defs>
  <path class="cls-1" d="m134.14,40.77c-1.24,4.45-2.57,8.86-3.69,13.32-2.36,9.55-3.82,19.25-4.37,29.08-.82,14.64.9,29.03,4.15,43.26,2.71,11.83,5.85,23.56,8.35,35.42,1.31,6.17,1.62,12.54,2.37,18.81.03.28.08.56.19,1.25.52-.73.88-1.15,1.16-1.62,7.63-12.96,6.48-29.05-3-40.72-1.41-1.74-2.35-3.51-2.77-5.72-1.23-6.57-2.6-13.1-3.89-19.65-.1-.56-.1-1.13-.19-2.09,8.48,3.68,15.39,8.88,20.95,15.79,8.32,10.35,12.56,22.22,12.18,35.49-.97,33.14-29.1,51.85-49.94,52.46.14-.45.21-.87.38-1.23,4.64-10.39,7.21-21.26,8.04-32.59.73-9.87.31-19.72-.59-29.55-1.02-11.05-2.26-22.08-2.99-33.13-.54-8.32-.83-16.69-.5-25.03.71-18.28,5.09-35.73,13.15-52.22.24-.52.52-1.01.78-1.53l.24.14v.04Z"/>
  <path class="cls-1" d="m85.84,114.59c0,.75.06,1.35,0,1.96-.43,5.04-.92,10.06-1.35,15.1-.16,1.76-.12,3.54-.38,5.28-.14.97-.51,2.05-1.1,2.82-5.83,7.49-8.28,15.98-7.64,25.36.38,5.47,2.14,10.56,4.92,15.3.2.36.52.66,1.06,1.34.79-2.12,1.58-3.89,2.15-5.73,2.64-8.34,3.94-16.9,4.55-25.61.57-8.27,1.13-16.54,1.77-24.81,1.53-19.37,4.95-38.37,11.64-56.68,1.48-4.07,3.15-8.06,4.73-12.07.1-.26.27-.5.62-.66-.61,1.95-1.21,3.89-1.8,5.84-3.08,10.04-5.15,20.29-6.28,30.7-.53,4.86-.76,9.78-.95,14.68-.21,5.3-.33,10.6-.28,15.9.11,10.89.66,21.8.49,32.69-.3,17.88-5.21,34.38-16.07,48.87-1.29,1.72-1.34,1.77-3.09.4-11.94-9.29-19.15-21.44-21.09-36.39-2.02-15.37,2.12-29.2,11.93-41.26,4.28-5.23,9.49-9.38,15.34-12.72.19-.12.44-.16.83-.3Z"/>
  <path class="cls-1" d="m134.57,16.02c-.59,1.09-1.16,2.21-1.77,3.28-9.97,18.1-16.4,37.38-19.28,57.85-1.37,9.71-1.79,19.51-1.11,29.25.6,8.79,2.22,17.51,3.21,26.3.71,6.18,1.22,12.4,1.63,18.62.26,3.86.37,7.75.26,11.62-.5,17.74-3.9,34.81-11.9,50.79-1.06,2.1-1.09,2.28-3.33,1.7-3.86-.97-7.64-2.17-11.47-3.25-1.35-.38-1.54-.96-.76-2.17,4.36-6.83,7.8-14.09,10.27-21.82,2.51-7.9,4.08-15.98,4.53-24.27.26-4.66.61-9.31.5-13.97-.15-7.31-.67-14.61-1.04-21.91-.21-4.17-.52-8.32-.62-12.49-.11-4.22-.11-8.42-.02-12.65.26-12.25,2.33-24.23,5.64-35.99,2.73-9.62,6.43-18.88,10.91-27.81,3.96-7.87,8.55-15.37,13.59-22.6.15-.23.35-.43.52-.64l.24.14Z"/>
</svg>