<?xml version="1.0" encoding="UTF-8" standalone="no" ?>
<!DOCTYPE svg PUBLIC "-//W3C//DTD SVG 1.1//EN" "http://www.w3.org/Graphics/SVG/1.1/DTD/svg11.dtd">
<svg xmlns="http://www.w3.org/2000/svg" xmlns:xlink="http://www.w3.org/1999/xlink" version="1.1" width="742" height="207.164" viewBox="0 0 742 207.164" xml:space="preserve">
<desc>Created with Fabric.js 5.3.0</desc>
<defs>
</defs>
<g transform="matrix(1 0 0 1 371 103.582)" id="ua6lOlHhyp4xggUI31Xpe"  >
<g style=""   >
		<g transform="matrix(1 0 0 1 -286.0668690422 -0.1606416114)" id="a5gYAFDmdl1pWSCDOhgos"  >
<path style="stroke: none; stroke-width: 1; stroke-dasharray: none; stroke-linecap: butt; stroke-dashoffset: 0; stroke-linejoin: miter; stroke-miterlimit: 4; fill: rgb(23,23,23); fill-rule: nonzero; opacity: 1;"  transform=" translate(-192.545, -163.9606310178)" d="M 192.72 171.92 C 192.89 171.48999999999998 193.09 171.07 193.21 170.61999999999998 C 196.89000000000001 157.89 200.59 145.14 204.24 132.39 C 204.64000000000001 131.01999999999998 205.28 130.52999999999997 206.72 130.54999999999998 C 215.07 130.61999999999998 223.45 130.58999999999997 231.8 130.58999999999997 C 233.73000000000002 130.58999999999997 233.78 130.64 233.78 132.58999999999997 C 233.78 153.51999999999998 233.78 174.45 233.8 195.39 C 233.8 196.82999999999998 233.43 197.39999999999998 231.89000000000001 197.36999999999998 C 227.16000000000003 197.27999999999997 222.44000000000003 197.29999999999998 217.73000000000002 197.36999999999998 C 216.37 197.36999999999998 215.91000000000003 196.92 215.96 195.57999999999998 C 216.27 187.48 216.55 179.39 216.83 171.29 C 216.93 168.39 217.06 165.51 217.13000000000002 162.6 C 217.27 157.65 217.37000000000003 152.68 217.49000000000004 147.73 C 217.49000000000004 147.36999999999998 217.40000000000003 147 217.04000000000005 146.57999999999998 C 216.88000000000005 146.94 216.71000000000004 147.30999999999997 216.59000000000006 147.69 C 211.43000000000006 163.57999999999998 206.24000000000007 179.46 201.13000000000005 195.36 C 200.63000000000005 196.91000000000003 199.90000000000006 197.41000000000003 198.30000000000004 197.38000000000002 C 194.32000000000005 197.28000000000003 190.33000000000004 197.31000000000003 186.35000000000005 197.36 C 185.29000000000005 197.36 184.75000000000006 197 184.42000000000004 195.99 C 179.40000000000003 180.53 174.34000000000003 165.07 169.31000000000006 149.59 C 168.95000000000005 148.5 168.60000000000005 147.38 168.23000000000005 146.29 L 167.67000000000004 146.34 C 167.67000000000004 147.56 167.63000000000005 148.77 167.67000000000004 149.97 C 167.83000000000004 153.6 168.05000000000004 157.23 168.17000000000004 160.84 C 168.41000000000005 168.45000000000002 168.59000000000003 176.06 168.83000000000004 183.67000000000002 C 168.95000000000005 187.54000000000002 169.19000000000005 191.42000000000002 169.35000000000005 195.29000000000002 C 169.42000000000004 197.18 169.28000000000006 197.32000000000002 167.40000000000006 197.32000000000002 C 162.62000000000006 197.32000000000002 157.86000000000007 197.28000000000003 153.08000000000007 197.34000000000003 C 151.71000000000006 197.36000000000004 151.29000000000008 196.84000000000003 151.29000000000008 195.53000000000003 C 151.3100000000001 174.46000000000004 151.3100000000001 153.37000000000003 151.29000000000008 132.30000000000004 C 151.29000000000008 131.07000000000005 151.67000000000007 130.54000000000005 152.97000000000008 130.54000000000005 C 161.3300000000001 130.58000000000004 169.70000000000007 130.59000000000006 178.0600000000001 130.54000000000005 C 179.4000000000001 130.54000000000005 179.85000000000008 131.15000000000006 180.1800000000001 132.26000000000005 C 184.0200000000001 144.96000000000004 187.8900000000001 157.64000000000004 191.75000000000009 170.34000000000003 C 191.91000000000008 170.88000000000002 192.1100000000001 171.40000000000003 192.3100000000001 171.92000000000004 L 192.7100000000001 171.92000000000004 Z" stroke-linecap="round" />
</g>
		<g transform="matrix(1 0 0 1 71.6784128653 9.708668884)" id="FSjgWwUbPVwf7-EHnj3yT"  >
<path style="stroke: none; stroke-width: 1; stroke-dasharray: none; stroke-linecap: butt; stroke-dashoffset: 0; stroke-linejoin: miter; stroke-miterlimit: 4; fill: rgb(23,23,23); fill-rule: nonzero; opacity: 1;"  transform=" translate(-550.2902819075, -173.8299415132)" d="M 567.48 186.51 C 567.91 183.63 568.35 180.73999999999998 568.76 177.85999999999999 C 570.05 169.11999999999998 571.35 160.39 572.62 151.63 C 572.74 150.74 573.14 150.32999999999998 574.0600000000001 150.32999999999998 C 578.09 150.32999999999998 582.12 150.35 586.1500000000001 150.32999999999998 C 587.4000000000001 150.32999999999998 587.3100000000001 151.04 587.1600000000001 151.89 C 586.1500000000001 157.64 585.1800000000001 163.41 584.1700000000001 169.16 C 582.6200000000001 178.01999999999998 581.0600000000001 186.85999999999999 579.57 195.72 C 579.36 196.95 578.88 197.35 577.6600000000001 197.34 C 571.3700000000001 197.29 565.07 197.29 558.7800000000001 197.34 C 557.5600000000001 197.34 557.08 196.94 556.8500000000001 195.72 C 554.9600000000002 185.78 552.9900000000001 175.87 551.0500000000002 165.93 C 550.9300000000002 165.32 550.7900000000002 164.71 550.3400000000001 164.09 C 550.0600000000002 165.44 549.7500000000001 166.8 549.4900000000001 168.16 C 547.7700000000001 177.18 546.0500000000001 186.21 544.3800000000001 195.24 C 544.1000000000001 196.75 543.5800000000002 197.39000000000001 541.9100000000001 197.36 C 535.7600000000001 197.26000000000002 529.6100000000001 197.29000000000002 523.46 197.36 C 522.07 197.36 521.45 196.94000000000003 521.2 195.54000000000002 C 518.63 181.04000000000002 516.0200000000001 166.53000000000003 513.4000000000001 152.04000000000002 C 513.1400000000001 150.65000000000003 513.6800000000001 150.3 514.95 150.32000000000002 C 518.6800000000001 150.35000000000002 522.4200000000001 150.41000000000003 526.1500000000001 150.3 C 527.6300000000001 150.27 528.1300000000001 150.84 528.3000000000001 152.19 C 529.08 158.03 529.9100000000001 163.85999999999999 530.73 169.7 C 531.44 174.85999999999999 532.15 180 532.88 185.16 C 532.95 185.63 533.11 186.1 533.52 186.62 C 533.66 186.15 533.8299999999999 185.68 533.9399999999999 185.21 C 536.29 174.16 538.63 163.11 540.92 152.05 C 541.18 150.82000000000002 541.65 150.3 542.9499999999999 150.31 C 547.8699999999999 150.36 552.78 150.36 557.6999999999999 150.31 C 559.02 150.31 559.4699999999999 150.83 559.7299999999999 152.05 C 562.0199999999999 163.12 564.3699999999999 174.16000000000003 566.7099999999999 185.21 C 566.8 185.66 566.9499999999999 186.1 567.0699999999999 186.53 L 567.43 186.53 L 567.4499999999999 186.51 Z" stroke-linecap="round" />
</g>
		<g transform="matrix(1 0 0 1 304.835 -0.1962726292)" id="KXaJhCpjcSHawy20YYJLS"  >
<path style="stroke: none; stroke-width: 1; stroke-dasharray: none; stroke-linecap: butt; stroke-dashoffset: 0; stroke-linejoin: miter; stroke-miterlimit: 4; fill: rgb(23,23,23); fill-rule: nonzero; opacity: 1;"  transform=" translate(-783.4468690422, -163.925)" d="M 776.74 158.54 C 776.9 158.20999999999998 777.09 157.9 777.21 157.57 C 778.88 153.04999999999998 782.11 150.32999999999998 786.87 149.76999999999998 C 789.47 149.45999999999998 792.2 149.33999999999997 794.79 149.73 C 801.81 150.81 805.77 155.34 805.86 162.45999999999998 C 806 173.55999999999997 805.89 184.65999999999997 805.9300000000001 195.77999999999997 C 805.9300000000001 196.92999999999998 805.5100000000001 197.33999999999997 804.3700000000001 197.33999999999997 C 800.3900000000001 197.29999999999998 796.4000000000001 197.26999999999998 792.4200000000001 197.33999999999997 C 790.94 197.36999999999998 790.46 196.89 790.46 195.39 C 790.51 186.48999999999998 790.49 177.6 790.48 168.70999999999998 C 790.48 167.92999999999998 790.48 167.12999999999997 790.36 166.35999999999999 C 789.66 162.23999999999998 787.96 161.24999999999997 783.86 161.42999999999998 C 778.98 161.61999999999998 776.77 164.06999999999996 776.69 168.99999999999997 C 776.5500000000001 177.68999999999997 776.5 186.39 776.4300000000001 195.07999999999998 C 776.4100000000001 197.29999999999998 776.4300000000001 197.29999999999998 774.22 197.29999999999998 C 770.38 197.29999999999998 766.5400000000001 197.26999999999998 762.7 197.32 C 761.4300000000001 197.34 760.96 196.9 760.96 195.62 C 760.98 174.5 760.98 153.37 760.96 132.23000000000002 C 760.96 130.96 761.4100000000001 130.49 762.6800000000001 130.51000000000002 C 766.61 130.56000000000003 770.5500000000001 130.58 774.47 130.51000000000002 C 775.95 130.48000000000002 776.4300000000001 130.96 776.4200000000001 132.46 C 776.3700000000001 140.57 776.3800000000001 148.67000000000002 776.3800000000001 156.78 L 776.3800000000001 158.46 L 776.7100000000002 158.51000000000002 L 776.7400000000001 158.53000000000003 Z" stroke-linecap="round" />
</g>
		<g transform="matrix(1 0 0 1 -200.4121925728 9.3525315214)" id="dBCxOXUItr5K33FvGPfd_"  >
<path style="stroke: none; stroke-width: 1; stroke-dasharray: none; stroke-linecap: butt; stroke-dashoffset: 0; stroke-linejoin: miter; stroke-miterlimit: 4; fill: rgb(23,23,23); fill-rule: nonzero; opacity: 1;"  transform=" translate(-278.1996764694, -173.4738041506)" d="M 301.71 173.62 C 301.5 178.78 301.16999999999996 183.85 299.46999999999997 188.77 C 298.17999999999995 192.45000000000002 295.66999999999996 194.87 291.97999999999996 195.87 C 289.29999999999995 196.62 286.53 197.26 283.75999999999993 197.43 C 277.91999999999996 197.78 272.06999999999994 197.88 266.31999999999994 196.44 C 260.75999999999993 195.05 257.3399999999999 191.68 256.03999999999996 186.1 C 254.69999999999996 180.35 254.36999999999998 174.54999999999998 254.92999999999995 168.69 C 255.20999999999995 165.77 255.60999999999996 162.84 256.24999999999994 159.97 C 257.35999999999996 155.09 260.3999999999999 151.94 265.34999999999997 150.76 C 273.61999999999995 148.79999999999998 281.9 148.89999999999998 290.21 150.51999999999998 C 296.39 151.73999999999998 299.56 155.82 300.47999999999996 161.76 C 301.09 165.67 301.33 169.64999999999998 301.72999999999996 173.59 L 301.71 173.61 Z M 286.13 174.44 C 285.94 171.94 285.85 169.92 285.64 167.93 C 285.16999999999996 163.52 283.8 162.15 279.4 161.54000000000002 C 279.10999999999996 161.51000000000002 278.81 161.40000000000003 278.53 161.40000000000003 C 273.84 161.43000000000004 271.76 162.62000000000003 271.08 165.66000000000003 C 269.9 171.05 270 176.46000000000004 270.97999999999996 181.87000000000003 C 271.28999999999996 183.57000000000002 272.36999999999995 184.67000000000004 274.03999999999996 185.12000000000003 C 276.7 185.83000000000004 279.39 185.85000000000002 282.04999999999995 185.12000000000003 C 283.86999999999995 184.63000000000002 285.06999999999994 183.43000000000004 285.3299999999999 181.54000000000002 C 285.68999999999994 179.02 285.9199999999999 176.49 286.1499999999999 174.44000000000003 L 286.12999999999994 174.46000000000004 Z" stroke-linecap="round" />
</g>
		<g transform="matrix(1 0 0 1 -135.1963969532 9.3863914553)" id="4NHisnLsjcpa4VdxaCZ2H"  >
<path style="stroke: none; stroke-width: 1; stroke-dasharray: none; stroke-linecap: butt; stroke-dashoffset: 0; stroke-linejoin: miter; stroke-miterlimit: 4; fill: rgb(23,23,23); fill-rule: nonzero; opacity: 1;"  transform=" translate(-343.415472089, -173.5076640845)" d="M 366.94 173.59 C 366.73 178.8 366.4 183.93 364.65 188.88 C 363.38 192.44 360.95 194.82 357.37 195.82999999999998 C 354.64 196.60999999999999 351.83 197.26999999999998 349.01 197.44 C 343.17 197.8 337.34 197.89 331.57 196.47 C 326.01 195.08 322.57 191.74 321.25 186.15 C 319.89 180.35 319.57 174.49 320.14 168.61 C 320.41999999999996 165.78 320.8 162.95000000000002 321.40999999999997 160.19000000000003 C 322.49999999999994 155.26000000000002 325.51 152.02000000000004 330.53 150.83000000000004 C 338.79999999999995 148.85000000000005 347.08 148.95000000000005 355.39 150.57000000000005 C 361.57 151.77000000000004 364.75 155.85000000000005 365.69 161.79000000000005 C 366.3 165.70000000000005 366.54 169.68000000000004 366.96 173.62000000000006 L 366.94 173.60000000000005 Z M 351.36 174.37 C 351.17 171.87 351.08000000000004 169.85 350.86 167.85 C 350.37 163.48999999999998 348.98 162.12 344.71000000000004 161.53 C 344.36 161.48 344.03000000000003 161.41 343.69000000000005 161.37 C 339.57000000000005 161.01 336.88000000000005 162.66 336.15000000000003 166.29 C 335.14000000000004 171.38 335.25000000000006 176.51999999999998 336.13000000000005 181.64999999999998 C 336.46000000000004 183.53999999999996 337.59000000000003 184.71999999999997 339.45000000000005 185.18999999999997 C 342.02000000000004 185.80999999999997 344.61000000000007 185.82999999999996 347.18000000000006 185.15999999999997 C 349.06000000000006 184.65999999999997 350.2900000000001 183.45999999999998 350.57000000000005 181.49999999999997 C 350.9200000000001 178.97999999999996 351.14000000000004 176.44999999999996 351.37000000000006 174.37999999999997 Z" stroke-linecap="round" />
</g>
		<g transform="matrix(1 0 0 1 -69.4934050916 9.2889122252)" id="wiM5NMzZg2rwjcF4vhHfC"  >
<path style="stroke: none; stroke-width: 1; stroke-dasharray: none; stroke-linecap: butt; stroke-dashoffset: 0; stroke-linejoin: miter; stroke-miterlimit: 4; fill: rgb(23,23,23); fill-rule: nonzero; opacity: 1;"  transform=" translate(-409.1184639506, -173.4101848544)" d="M 402.46 158.54 C 402.66999999999996 158.10999999999999 402.89 157.67 403.07 157.23999999999998 C 404.65 153.11999999999998 407.69 150.58999999999997 411.95 149.89 C 414.72999999999996 149.44 417.67 149.32 420.45 149.73 C 427.47999999999996 150.76999999999998 431.43 155.32 431.53 162.45999999999998 C 431.66999999999996 173.55999999999997 431.57 184.65999999999997 431.59999999999997 195.77999999999997 C 431.59999999999997 196.92999999999998 431.17999999999995 197.33999999999997 430.03999999999996 197.33999999999997 C 426.05999999999995 197.30999999999997 422.06999999999994 197.26999999999998 418.09 197.33999999999997 C 416.60999999999996 197.36999999999998 416.10999999999996 196.89 416.13 195.40999999999997 C 416.18 186.51999999999998 416.17 177.61999999999998 416.15 168.72999999999996 C 416.15 167.94999999999996 416.15 167.14999999999995 416.03 166.38999999999996 C 415.34 162.26999999999995 413.63 161.27999999999994 409.53 161.45999999999995 C 404.65 161.64999999999995 402.44 164.09999999999994 402.35999999999996 169.02999999999994 C 402.21999999999997 177.71999999999994 402.16999999999996 186.41999999999996 402.09999999999997 195.09999999999994 C 402.08 197.30999999999995 402.09999999999997 197.31999999999994 399.89 197.31999999999994 C 396.05 197.31999999999994 392.21 197.28999999999994 388.37 197.33999999999995 C 387.1 197.35999999999996 386.63 196.91999999999996 386.63 195.63999999999996 C 386.65999999999997 181.09999999999997 386.65999999999997 166.53999999999996 386.63 151.99999999999994 C 386.63 150.79999999999995 387.05 150.32999999999996 388.26 150.32999999999996 C 392.28999999999996 150.37999999999997 396.32 150.37999999999997 400.37 150.32999999999996 C 401.62 150.32999999999996 402.16 150.72999999999996 402.11 152.02999999999994 C 402.04 154.16999999999993 402.09000000000003 156.31999999999994 402.09000000000003 158.45999999999995 L 402.49 158.50999999999996 L 402.47 158.52999999999997 Z" stroke-linecap="round" />
</g>
		<g transform="matrix(1 0 0 1 -3.8943763683 9.3569488058)" id="HTJiBDvwES18reU0v93qW"  >
<path style="stroke: none; stroke-width: 1; stroke-dasharray: none; stroke-linecap: butt; stroke-dashoffset: 0; stroke-linejoin: miter; stroke-miterlimit: 4; fill: rgb(23,23,23); fill-rule: nonzero; opacity: 1;"  transform=" translate(-474.7174926739, -173.478221435)" d="M 459.74 182.76 C 461.81 182.76 463.88 182.79 465.94 182.76 C 466.93 182.73999999999998 467.52 183 467.59 184.10999999999999 C 467.72999999999996 185.99999999999997 468.88 187.2 470.67999999999995 187.29 C 473.74999999999994 187.45 476.84999999999997 187.45999999999998 479.9 187.23999999999998 C 481.78 187.1 482.45 186.01999999999998 482.56 184.10999999999999 C 482.7 181.57 482.09 180.17999999999998 480.21 179.76999999999998 C 478.21 179.32 476.13 179.24999999999997 474.09999999999997 179.01999999999998 C 470.04999999999995 178.58999999999997 465.93999999999994 178.52999999999997 461.96999999999997 177.67999999999998 C 454.14 175.98 451.35999999999996 170.51999999999998 451.96 162.83999999999997 C 452.2 159.75999999999996 452.98999999999995 156.82999999999998 455.04999999999995 154.39999999999998 C 457.28999999999996 151.76 460.34999999999997 150.67999999999998 463.59999999999997 150.17999999999998 C 471.09 149.04999999999998 478.57 148.90999999999997 486.03999999999996 150.34999999999997 C 487.33 150.58999999999997 488.59 151.05999999999997 489.80999999999995 151.59999999999997 C 494.7099999999999 153.73999999999995 495.5799999999999 158.23999999999995 495.46999999999997 162.29999999999995 C 495.46999999999997 162.65999999999997 494.77 163.30999999999995 494.38 163.30999999999995 C 490.19 163.37999999999994 486.02 163.37999999999994 481.84 163.30999999999995 C 481.41999999999996 163.30999999999995 480.79999999999995 162.60999999999996 480.65999999999997 162.14999999999995 C 480.15999999999997 160.40999999999994 478.98999999999995 159.60999999999996 477.30999999999995 159.55999999999995 C 475.0199999999999 159.48999999999995 472.7099999999999 159.43999999999994 470.40999999999997 159.60999999999996 C 468.05999999999995 159.77999999999994 467.07 160.89999999999995 466.95 163.04999999999995 C 466.81 165.33999999999995 467.65 166.60999999999996 469.92 167.05999999999995 C 471.88 167.43999999999994 473.91 167.52999999999994 475.91 167.69999999999993 C 479.73 168.02999999999994 483.59000000000003 168.04999999999993 487.34000000000003 168.66999999999993 C 494.17 169.79999999999993 497.57000000000005 174.03999999999994 497.61 180.94999999999993 C 497.61 182.75999999999993 497.52000000000004 184.59999999999994 497.25 186.36999999999992 C 496.36 192.11999999999992 493.2 195.36999999999992 487.33 196.61999999999992 C 480.76 198.0099999999999 474.13 197.70999999999992 467.49 197.36999999999992 C 465.39 197.26999999999992 463.27 196.9699999999999 461.22 196.5399999999999 C 455.96000000000004 195.4499999999999 452.90000000000003 192.1399999999999 452.15000000000003 186.80999999999992 C 451.49 182.02999999999992 451.47 182.77999999999992 455.69000000000005 182.7299999999999 L 459.6700000000001 182.7299999999999 L 459.7200000000001 182.74999999999991 Z" stroke-linecap="round" />
</g>
		<g transform="matrix(1 0 0 1 240.1458841303 9.5165751049)" id="PetOXLrehyKT0SwqzXWbL"  >
<path style="stroke: none; stroke-width: 1; stroke-dasharray: none; stroke-linecap: butt; stroke-dashoffset: 0; stroke-linejoin: miter; stroke-miterlimit: 4; fill: rgb(23,23,23); fill-rule: nonzero; opacity: 1;"  transform=" translate(-718.7577531725, -173.6378477341)" d="M 733.57 167.53 C 731.45 167.53 729.33 167.58 727.23 167.5 C 726.76 167.48 726 166.98 725.89 166.58 C 724.78 162.17000000000002 723.16 160.99 718.54 161.42000000000002 C 717.86 161.49 717.17 161.58 716.49 161.70000000000002 C 714.47 162.08 712.95 163.18 712.67 165.26000000000002 C 712.27 168.21 712.05 171.20000000000002 711.92 174.19000000000003 C 711.8499999999999 176.19000000000003 711.9599999999999 178.22000000000003 712.2299999999999 180.20000000000002 C 712.8399999999999 184.44000000000003 713.8299999999999 185.38000000000002 718.0999999999999 185.66000000000003 C 719.6999999999999 185.76000000000002 721.31 185.43000000000004 722.9099999999999 185.21000000000004 C 724.4199999999998 185.00000000000003 725.1899999999998 183.98000000000005 725.4299999999998 182.52000000000004 C 725.5299999999999 181.95000000000005 725.6399999999999 181.36000000000004 725.7099999999998 180.78000000000003 C 725.9299999999998 179.17000000000002 726.8699999999998 178.37000000000003 728.5399999999998 178.37000000000003 C 732.2199999999998 178.37000000000003 735.9199999999998 178.41000000000003 739.6099999999999 178.37000000000003 C 740.8299999999999 178.37000000000003 741.2599999999999 178.80000000000004 741.2399999999999 180.00000000000003 C 741.1499999999999 183.67000000000002 740.6699999999998 187.23000000000002 738.9999999999999 190.56000000000003 C 737.6799999999998 193.22000000000003 735.6499999999999 195.09000000000003 732.8199999999999 195.88000000000002 C 730.28 196.59000000000003 727.66 197.27 725.04 197.43000000000004 C 718.3199999999999 197.85000000000002 711.56 198.21000000000004 705.0999999999999 195.59000000000003 C 702.1299999999999 194.39000000000004 700.05 192.27000000000004 698.7599999999999 189.35000000000002 C 697.1099999999999 185.60000000000002 696.6199999999999 181.60000000000002 696.3999999999999 177.57000000000002 C 696.0899999999999 171.66000000000003 696.2599999999999 165.79000000000002 698.0199999999999 160.06000000000003 C 699.3399999999999 155.74000000000004 702.1499999999999 152.75000000000003 706.3799999999999 151.39000000000004 C 709.4399999999998 150.42000000000004 712.6899999999998 149.67000000000004 715.8599999999999 149.58000000000004 C 720.3899999999999 149.46000000000004 725.0099999999999 149.72000000000003 729.4999999999999 150.38000000000005 C 738.8299999999999 151.77000000000004 741.2299999999999 159.31000000000006 741.2299999999999 166.40000000000006 C 741.2299999999999 167.32000000000005 740.6899999999999 167.56000000000006 739.8899999999999 167.55000000000007 L 733.5499999999998 167.55000000000007 L 733.5799999999998 167.55000000000007 Z" stroke-linecap="round" />
</g>
		<g transform="matrix(1 0 0 1 180.240749742 5.0303623081)" id="l1Mxqw-P48YMe8ifgcPCI"  >
<path style="stroke: none; stroke-width: 1; stroke-dasharray: none; stroke-linecap: butt; stroke-dashoffset: 0; stroke-linejoin: miter; stroke-miterlimit: 4; fill: rgb(23,23,23); fill-rule: nonzero; opacity: 1;"  transform=" translate(-658.8526187842, -169.1516349373)" d="M 644.07 174.41 C 644.07 170.73 644.0400000000001 167.04 644.09 163.35999999999999 C 644.11 162.10999999999999 643.73 161.61999999999998 642.4100000000001 161.61999999999998 C 638.45 161.61999999999998 638.45 161.56999999999996 638.45 157.64 C 638.45 155.67999999999998 638.47 153.70999999999998 638.45 151.75 C 638.45 150.76 638.83 150.29 639.86 150.34 C 640.59 150.38 641.34 150.27 642.07 150.34 C 643.58 150.51 644.21 149.98 644.12 148.38 C 644 146.37 644.12 144.35 644.07 142.34 C 644.0400000000001 141.12 644.4000000000001 140.55 645.74 140.57 C 649.77 140.62 653.8 140.62 657.83 140.57 C 659.13 140.54999999999998 659.57 141.04 659.5300000000001 142.31 C 659.46 144.41 659.5600000000001 146.53 659.5000000000001 148.65 C 659.4500000000002 149.94 659.9000000000001 150.37 661.2000000000002 150.35 C 665.8700000000001 150.29999999999998 670.5500000000002 150.32 675.2200000000001 150.32999999999998 C 677.1500000000001 150.32999999999998 677.2200000000001 150.39999999999998 677.2200000000001 152.30999999999997 L 677.2200000000001 159.67 C 677.2200000000001 161.55999999999997 677.1500000000001 161.63 675.1900000000002 161.63 C 670.6200000000001 161.63 666.0300000000002 161.68 661.4700000000001 161.60999999999999 C 660.0300000000001 161.58999999999997 659.4700000000001 161.95999999999998 659.4900000000001 163.49999999999997 C 659.5800000000002 169.48999999999998 659.5200000000001 175.48999999999998 659.5200000000001 181.47999999999996 C 659.5200000000001 182.06999999999996 659.5500000000001 182.65999999999997 659.6600000000001 183.23999999999995 C 660.0100000000001 185.42999999999995 660.7 186.10999999999996 662.6300000000001 186.22999999999996 C 664.4000000000001 186.32999999999996 665.7900000000001 185.44999999999996 666.2600000000001 183.63999999999996 C 666.5900000000001 182.31999999999996 666.7100000000002 180.92999999999995 666.7800000000001 179.56999999999996 C 666.83 178.53999999999996 667.1100000000001 178.01999999999995 668.2400000000001 178.03999999999996 C 671.4400000000002 178.06999999999996 674.6300000000001 178.05999999999997 677.8300000000002 178.03999999999996 C 678.6800000000002 178.03999999999996 679.3200000000002 178.26999999999995 679.2500000000001 179.25999999999996 C 679.0400000000001 182.43999999999997 679.0400000000001 185.64999999999995 678.5200000000001 188.77999999999997 C 677.7400000000001 193.39999999999998 674.7300000000001 196.10999999999999 670.1500000000001 196.94999999999996 C 664.4900000000001 197.98999999999995 658.7900000000001 198.02999999999997 653.1400000000001 196.85999999999996 C 647.2500000000001 195.63999999999996 644.19 191.64999999999995 644.0900000000001 185.30999999999995 C 644.0400000000002 181.67999999999995 644.0900000000001 178.02999999999994 644.0900000000001 174.39999999999995 Z" stroke-linecap="round" />
</g>
		<g transform="matrix(1 0 0 1 133.6181309578 9.7331209247)" id="u6tasnx6z3whIDHdSuLZA"  >
<path style="stroke: none; stroke-width: 1; stroke-dasharray: none; stroke-linecap: butt; stroke-dashoffset: 0; stroke-linejoin: miter; stroke-miterlimit: 4; fill: rgb(23,23,23); fill-rule: nonzero; opacity: 1;"  transform=" translate(-612.23, -173.8543935539)" d="M 604.51 173.68 C 604.51 166.56 604.55 159.44 604.48 152.31 C 604.48 150.85 604.9300000000001 150.31 606.4300000000001 150.35 C 610.36 150.44 614.3000000000001 150.4 618.24 150.35 C 619.51 150.35 619.98 150.76999999999998 619.98 152.07 C 619.95 166.60999999999999 619.95 181.14999999999998 619.98 195.70999999999998 C 619.98 197.04999999999998 619.41 197.37999999999997 618.19 197.35999999999999 C 614.2600000000001 197.30999999999997 610.32 197.29 606.3800000000001 197.35999999999999 C 604.9700000000001 197.38 604.4900000000001 196.91 604.4900000000001 195.49999999999997 C 604.5400000000001 188.21999999999997 604.5100000000001 180.95999999999998 604.5100000000001 173.67999999999998 L 604.5300000000001 173.67999999999998 Z" stroke-linecap="round" />
</g>
		<g transform="matrix(1 0 0 1 133.6232406705 -27.5959541513)" id="vXDP8LQo6BPoeabDzLMkU"  >
<path style="stroke: none; stroke-width: 1; stroke-dasharray: none; stroke-linecap: butt; stroke-dashoffset: 0; stroke-linejoin: miter; stroke-miterlimit: 4; fill: rgb(23,23,23); fill-rule: nonzero; opacity: 1;"  transform=" translate(-612.2351097127, -136.5253184779)" d="M 612.14 142.48 C 610.0699999999999 142.48 608.02 142.45999999999998 605.96 142.48 C 604.97 142.48 604.52 142.1 604.52 141.09 C 604.54 138.05 604.54 135.01 604.52 131.97 C 604.52 130.98 604.92 130.56 605.93 130.56 C 610.15 130.58 614.37 130.58 618.5899999999999 130.56 C 619.6299999999999 130.56 619.9599999999999 131.05 619.9499999999999 132.02 C 619.93 135.01000000000002 619.91 138.01000000000002 619.9499999999999 141 C 619.9499999999999 142.06 619.53 142.51 618.4699999999999 142.49 C 616.3499999999999 142.46 614.2499999999999 142.49 612.1299999999999 142.49 L 612.1499999999999 142.47 Z" stroke-linecap="round" />
</g>
</g>
</g>
</svg>